STARTFONT 2.1

COMMENT 
COMMENT  This is the Tektite font, out of the VFONT utility by clySmic
COMMENT  Software. It's been heavily modified: the 0 and the * have been
COMMENT  altered, a load of new characters have been drawn, it's had a
COMMENT  format conversion done on it, and to add insult to injury I then
COMMENT  reduced its width by a pixel.
COMMENT 
COMMENT  All these modifications were done by Simon Tatham, who asserts
COMMENT  no copyright.
COMMENT 
COMMENT  The original VFONT copyright says:
COMMENT 
COMMENT    VFONT is copyright 1991, 1993, 1998 by clySmic software, and is
COMMENT    released as "Freeware".
COMMENT 
COMMENT    You may copy the program and distribute it without charge.  You may
COMMENT    not sell or otherwise charge for VFONT. However, users' groups may
COMMENT    charge a small fee (not to exceed $10) for media and postage.
COMMENT 

FONT -clySmic-Tektite-Medium-R-SemiCondensed--15-140-75-75-C-80-ISO10646-1
SIZE 14 75 75
FONTBOUNDINGBOX 8 15 0 -3

STARTPROPERTIES 24
  FONTNAME_REGISTRY ""
  FOUNDRY "clySmic"
  FAMILY_NAME "Tektite"
  WEIGHT_NAME "Medium"
  SLANT "R"
  SETWIDTH_NAME "SemiCondensed"
  ADD_STYLE_NAME ""
  PIXEL_SIZE 15
  POINT_SIZE 140
  RESOLUTION_X 75
  RESOLUTION_Y 75
  SPACING "C"
  AVERAGE_WIDTH 80
  CHARSET_REGISTRY "ISO10646"
  CHARSET_ENCODING "1"
  COPYRIGHT "Portions copyright 1991,1993,1998 clySmic Software."
  FONT "-clySmic-Tektite-Medium-R-SemiCondensed--15-140-75-75-C-80-ISO10646-1"
  WEIGHT 10
  RESOLUTION 103
  X_HEIGHT 12
  QUAD_WIDTH 8
  DEFAULT_CHAR 0
  FONT_ASCENT 12
  FONT_DESCENT 3
ENDPROPERTIES

CHARS 521

STARTCHAR space
ENCODING 32
SWIDTH 548 0
DWIDTH 8 0
BBX 8 15 0 -3
BITMAP
00
00
00
00
00
00
00
00
00
00
00
00
00
00
00
ENDCHAR

STARTCHAR exclam
ENCODING 33
SWIDTH 548 0
DWIDTH 8 0
BBX 8 15 0 -3
BITMAP
00
00
18
18
18
18
18
18
18
00
18
18
00
00
00
ENDCHAR

STARTCHAR quotedbl
ENCODING 34
SWIDTH 548 0
DWIDTH 8 0
BBX 8 15 0 -3
BITMAP
00
00
1B
36
6C
00
00
00
00
00
00
00
00
00
00
ENDCHAR

STARTCHAR numbersign
ENCODING 35
SWIDTH 548 0
DWIDTH 8 0
BBX 8 15 0 -3
BITMAP
00
00
1B
1B
7F
36
36
36
36
7F
6C
6C
00
00
00
ENDCHAR

STARTCHAR dollar
ENCODING 36
SWIDTH 548 0
DWIDTH 8 0
BBX 8 15 0 -3
BITMAP
00
08
3E
6B
68
38
0C
0E
0B
6B
6B
3E
08
00
00
ENDCHAR

STARTCHAR percent
ENCODING 37
SWIDTH 548 0
DWIDTH 8 0
BBX 8 15 0 -3
BITMAP
00
00
30
69
5B
36
0C
18
36
6D
0B
06
00
00
00
ENDCHAR

STARTCHAR ampersand
ENCODING 38
SWIDTH 548 0
DWIDTH 8 0
BBX 8 15 0 -3
BITMAP
00
00
1C
36
36
1C
38
6C
67
66
6E
3B
00
00
00
ENDCHAR

STARTCHAR quotesingle
ENCODING 39
SWIDTH 548 0
DWIDTH 8 0
BBX 8 15 0 -3
BITMAP
00
00
0C
18
30
00
00
00
00
00
00
00
00
00
00
ENDCHAR

STARTCHAR parenleft
ENCODING 40
SWIDTH 548 0
DWIDTH 8 0
BBX 8 15 0 -3
BITMAP
00
06
0C
18
18
30
30
30
30
18
18
0C
06
00
00
ENDCHAR

STARTCHAR parenright
ENCODING 41
SWIDTH 548 0
DWIDTH 8 0
BBX 8 15 0 -3
BITMAP
00
30
18
0C
0C
06
06
06
06
0C
0C
18
30
00
00
ENDCHAR

STARTCHAR asterisk
ENCODING 42
SWIDTH 548 0
DWIDTH 8 0
BBX 8 15 0 -3
BITMAP
00
00
00
00
00
36
1C
7F
1C
36
00
00
00
00
00
ENDCHAR

STARTCHAR plus
ENCODING 43
SWIDTH 548 0
DWIDTH 8 0
BBX 8 15 0 -3
BITMAP
00
00
00
00
00
18
18
7E
18
18
00
00
00
00
00
ENDCHAR

STARTCHAR comma
ENCODING 44
SWIDTH 548 0
DWIDTH 8 0
BBX 8 15 0 -3
BITMAP
00
00
00
00
00
00
00
00
00
00
0C
18
30
00
00
ENDCHAR

STARTCHAR hyphen
ENCODING 45
SWIDTH 548 0
DWIDTH 8 0
BBX 8 15 0 -3
BITMAP
00
00
00
00
00
00
00
7E
00
00
00
00
00
00
00
ENDCHAR

STARTCHAR period
ENCODING 46
SWIDTH 548 0
DWIDTH 8 0
BBX 8 15 0 -3
BITMAP
00
00
00
00
00
00
00
00
00
00
18
18
00
00
00
ENDCHAR

STARTCHAR slash
ENCODING 47
SWIDTH 548 0
DWIDTH 8 0
BBX 8 15 0 -3
BITMAP
00
00
03
02
06
04
0C
08
18
10
30
20
60
00
00
ENDCHAR

STARTCHAR zero
ENCODING 48
SWIDTH 548 0
DWIDTH 8 0
BBX 8 15 0 -3
BITMAP
00
00
1E
33
67
6F
6B
7B
73
63
66
3C
00
00
00
ENDCHAR

STARTCHAR one
ENCODING 49
SWIDTH 548 0
DWIDTH 8 0
BBX 8 15 0 -3
BITMAP
00
00
0C
1C
3C
6C
0C
0C
0C
0C
0C
0C
00
00
00
ENDCHAR

STARTCHAR two
ENCODING 50
SWIDTH 548 0
DWIDTH 8 0
BBX 8 15 0 -3
BITMAP
00
00
1E
33
63
03
06
0C
18
30
63
7F
00
00
00
ENDCHAR

STARTCHAR three
ENCODING 51
SWIDTH 548 0
DWIDTH 8 0
BBX 8 15 0 -3
BITMAP
00
00
7F
66
0C
18
3E
03
03
63
66
3C
00
00
00
ENDCHAR

STARTCHAR four
ENCODING 52
SWIDTH 548 0
DWIDTH 8 0
BBX 8 15 0 -3
BITMAP
00
00
06
0E
1E
1E
36
67
7E
76
06
06
00
00
00
ENDCHAR

STARTCHAR five
ENCODING 53
SWIDTH 548 0
DWIDTH 8 0
BBX 8 15 0 -3
BITMAP
00
00
0F
78
60
6E
7B
03
03
63
66
3C
00
00
00
ENDCHAR

STARTCHAR six
ENCODING 54
SWIDTH 548 0
DWIDTH 8 0
BBX 8 15 0 -3
BITMAP
00
00
1E
33
63
60
6E
7B
63
63
66
3C
00
00
00
ENDCHAR

STARTCHAR seven
ENCODING 55
SWIDTH 548 0
DWIDTH 8 0
BBX 8 15 0 -3
BITMAP
00
00
7F
63
06
06
0C
0C
18
18
18
18
00
00
00
ENDCHAR

STARTCHAR eight
ENCODING 56
SWIDTH 548 0
DWIDTH 8 0
BBX 8 15 0 -3
BITMAP
00
00
1C
36
66
3C
1E
33
63
63
66
3C
00
00
00
ENDCHAR

STARTCHAR nine
ENCODING 57
SWIDTH 548 0
DWIDTH 8 0
BBX 8 15 0 -3
BITMAP
00
00
1E
33
63
63
6F
3B
03
63
66
3C
00
00
00
ENDCHAR

STARTCHAR colon
ENCODING 58
SWIDTH 548 0
DWIDTH 8 0
BBX 8 15 0 -3
BITMAP
00
00
00
00
18
18
00
00
00
18
18
00
00
00
00
ENDCHAR

STARTCHAR semicolon
ENCODING 59
SWIDTH 548 0
DWIDTH 8 0
BBX 8 15 0 -3
BITMAP
00
00
00
00
18
18
00
00
00
18
18
30
00
00
00
ENDCHAR

STARTCHAR less
ENCODING 60
SWIDTH 548 0
DWIDTH 8 0
BBX 8 15 0 -3
BITMAP
00
00
06
0C
18
30
60
60
30
18
0C
06
00
00
00
ENDCHAR

STARTCHAR equal
ENCODING 61
SWIDTH 548 0
DWIDTH 8 0
BBX 8 15 0 -3
BITMAP
00
00
00
00
00
7F
00
00
7F
00
00
00
00
00
00
ENDCHAR

STARTCHAR greater
ENCODING 62
SWIDTH 548 0
DWIDTH 8 0
BBX 8 15 0 -3
BITMAP
00
00
60
30
18
0C
06
06
0C
18
30
60
00
00
00
ENDCHAR

STARTCHAR question
ENCODING 63
SWIDTH 548 0
DWIDTH 8 0
BBX 8 15 0 -3
BITMAP
00
00
1E
33
63
06
0C
18
18
00
18
18
00
00
00
ENDCHAR

STARTCHAR at
ENCODING 64
SWIDTH 548 0
DWIDTH 8 0
BBX 8 15 0 -3
BITMAP
00
00
1E
33
67
6B
6B
6B
6E
68
66
7C
30
00
00
ENDCHAR

STARTCHAR A
ENCODING 65
SWIDTH 548 0
DWIDTH 8 0
BBX 8 15 0 -3
BITMAP
00
00
0C
0C
1C
16
36
3E
3A
63
63
63
00
00
00
ENDCHAR

STARTCHAR B
ENCODING 66
SWIDTH 548 0
DWIDTH 8 0
BBX 8 15 0 -3
BITMAP
00
00
0E
1B
73
66
7C
77
63
66
7C
70
00
00
00
ENDCHAR

STARTCHAR C
ENCODING 67
SWIDTH 548 0
DWIDTH 8 0
BBX 8 15 0 -3
BITMAP
00
00
0E
1B
30
60
60
60
60
60
33
1E
00
00
00
ENDCHAR

STARTCHAR D
ENCODING 68
SWIDTH 548 0
DWIDTH 8 0
BBX 8 15 0 -3
BITMAP
00
00
7C
66
63
63
63
63
63
66
6C
78
00
00
00
ENDCHAR

STARTCHAR E
ENCODING 69
SWIDTH 548 0
DWIDTH 8 0
BBX 8 15 0 -3
BITMAP
00
00
0F
78
60
60
6E
78
60
60
6F
78
00
00
00
ENDCHAR

STARTCHAR F
ENCODING 70
SWIDTH 548 0
DWIDTH 8 0
BBX 8 15 0 -3
BITMAP
00
00
0F
78
60
60
6E
78
60
60
60
60
00
00
00
ENDCHAR

STARTCHAR G
ENCODING 71
SWIDTH 548 0
DWIDTH 8 0
BBX 8 15 0 -3
BITMAP
00
00
1E
33
60
60
60
6F
63
63
36
1C
00
00
00
ENDCHAR

STARTCHAR H
ENCODING 72
SWIDTH 548 0
DWIDTH 8 0
BBX 8 15 0 -3
BITMAP
00
00
63
63
63
63
6F
7B
63
63
63
63
00
00
00
ENDCHAR

STARTCHAR I
ENCODING 73
SWIDTH 548 0
DWIDTH 8 0
BBX 8 15 0 -3
BITMAP
00
00
0E
1C
0C
0C
0C
0C
0C
0C
0E
1C
00
00
00
ENDCHAR

STARTCHAR J
ENCODING 74
SWIDTH 548 0
DWIDTH 8 0
BBX 8 15 0 -3
BITMAP
00
00
03
03
03
03
03
03
63
63
33
1E
00
00
00
ENDCHAR

STARTCHAR K
ENCODING 75
SWIDTH 548 0
DWIDTH 8 0
BBX 8 15 0 -3
BITMAP
00
00
63
66
6C
78
70
70
78
6C
66
63
00
00
00
ENDCHAR

STARTCHAR L
ENCODING 76
SWIDTH 548 0
DWIDTH 8 0
BBX 8 15 0 -3
BITMAP
00
00
60
60
60
60
60
60
60
60
6F
78
00
00
00
ENDCHAR

STARTCHAR M
ENCODING 77
SWIDTH 548 0
DWIDTH 8 0
BBX 8 15 0 -3
BITMAP
00
00
63
63
77
7F
7B
6B
63
63
63
63
00
00
00
ENDCHAR

STARTCHAR N
ENCODING 78
SWIDTH 548 0
DWIDTH 8 0
BBX 8 15 0 -3
BITMAP
00
00
63
63
73
7B
7B
6F
6F
67
63
63
00
00
00
ENDCHAR

STARTCHAR O
ENCODING 79
SWIDTH 548 0
DWIDTH 8 0
BBX 8 15 0 -3
BITMAP
00
00
1E
33
63
63
63
63
63
63
66
3C
00
00
00
ENDCHAR

STARTCHAR P
ENCODING 80
SWIDTH 548 0
DWIDTH 8 0
BBX 8 15 0 -3
BITMAP
00
00
0E
1B
73
63
66
7C
70
60
60
60
00
00
00
ENDCHAR

STARTCHAR Q
ENCODING 81
SWIDTH 548 0
DWIDTH 8 0
BBX 8 15 0 -3
BITMAP
00
00
1E
33
63
63
63
73
7B
6E
6C
3C
06
03
00
ENDCHAR

STARTCHAR R
ENCODING 82
SWIDTH 548 0
DWIDTH 8 0
BBX 8 15 0 -3
BITMAP
00
00
0E
1B
73
63
66
7C
78
6C
66
63
00
00
00
ENDCHAR

STARTCHAR S
ENCODING 83
SWIDTH 548 0
DWIDTH 8 0
BBX 8 15 0 -3
BITMAP
00
00
3E
63
60
30
1C
06
03
63
63
3E
00
00
00
ENDCHAR

STARTCHAR T
ENCODING 84
SWIDTH 548 0
DWIDTH 8 0
BBX 8 15 0 -3
BITMAP
00
00
0F
78
18
18
18
18
18
18
18
18
00
00
00
ENDCHAR

STARTCHAR U
ENCODING 85
SWIDTH 548 0
DWIDTH 8 0
BBX 8 15 0 -3
BITMAP
00
00
63
63
63
63
63
63
66
66
66
3C
00
00
00
ENDCHAR

STARTCHAR V
ENCODING 86
SWIDTH 548 0
DWIDTH 8 0
BBX 8 15 0 -3
BITMAP
00
00
63
63
63
63
36
36
3C
1C
18
10
00
00
00
ENDCHAR

STARTCHAR W
ENCODING 87
SWIDTH 548 0
DWIDTH 8 0
BBX 8 15 0 -3
BITMAP
00
00
63
63
63
63
6B
6B
6B
7F
77
63
00
00
00
ENDCHAR

STARTCHAR X
ENCODING 88
SWIDTH 548 0
DWIDTH 8 0
BBX 8 15 0 -3
BITMAP
00
00
63
63
36
36
1C
1C
36
36
63
63
00
00
00
ENDCHAR

STARTCHAR Y
ENCODING 89
SWIDTH 548 0
DWIDTH 8 0
BBX 8 15 0 -3
BITMAP
00
00
63
63
66
36
3C
18
18
18
18
18
00
00
00
ENDCHAR

STARTCHAR Z
ENCODING 90
SWIDTH 548 0
DWIDTH 8 0
BBX 8 15 0 -3
BITMAP
00
00
0F
7B
06
0C
0C
18
18
30
6F
78
00
00
00
ENDCHAR

STARTCHAR bracketleft
ENCODING 91
SWIDTH 548 0
DWIDTH 8 0
BBX 8 15 0 -3
BITMAP
00
3E
30
30
30
30
30
30
30
30
30
30
3E
00
00
ENDCHAR

STARTCHAR backslash
ENCODING 92
SWIDTH 548 0
DWIDTH 8 0
BBX 8 15 0 -3
BITMAP
00
00
60
20
30
10
18
08
0C
04
06
02
03
00
00
ENDCHAR

STARTCHAR bracketright
ENCODING 93
SWIDTH 548 0
DWIDTH 8 0
BBX 8 15 0 -3
BITMAP
00
3E
06
06
06
06
06
06
06
06
06
06
3E
00
00
ENDCHAR

STARTCHAR asciicircum
ENCODING 94
SWIDTH 548 0
DWIDTH 8 0
BBX 8 15 0 -3
BITMAP
00
0C
1E
33
60
00
00
00
00
00
00
00
00
00
00
ENDCHAR

STARTCHAR underscore
ENCODING 95
SWIDTH 548 0
DWIDTH 8 0
BBX 8 15 0 -3
BITMAP
00
00
00
00
00
00
00
00
00
00
00
00
00
7F
00
ENDCHAR

STARTCHAR grave
ENCODING 96
SWIDTH 548 0
DWIDTH 8 0
BBX 8 15 0 -3
BITMAP
00
00
18
0C
06
00
00
00
00
00
00
00
00
00
00
ENDCHAR

STARTCHAR a
ENCODING 97
SWIDTH 548 0
DWIDTH 8 0
BBX 8 15 0 -3
BITMAP
00
00
00
00
00
1E
33
0F
3B
63
6F
3B
00
00
00
ENDCHAR

STARTCHAR b
ENCODING 98
SWIDTH 548 0
DWIDTH 8 0
BBX 8 15 0 -3
BITMAP
00
00
60
60
60
6E
7B
63
63
66
6C
78
00
00
00
ENDCHAR

STARTCHAR c
ENCODING 99
SWIDTH 548 0
DWIDTH 8 0
BBX 8 15 0 -3
BITMAP
00
00
00
00
00
0E
1B
30
60
60
63
3E
00
00
00
ENDCHAR

STARTCHAR d
ENCODING 100
SWIDTH 548 0
DWIDTH 8 0
BBX 8 15 0 -3
BITMAP
00
00
03
03
03
0F
3B
63
63
67
6F
3B
00
00
00
ENDCHAR

STARTCHAR e
ENCODING 101
SWIDTH 548 0
DWIDTH 8 0
BBX 8 15 0 -3
BITMAP
00
00
00
00
00
1E
33
66
7C
60
63
3E
00
00
00
ENDCHAR

STARTCHAR f
ENCODING 102
SWIDTH 548 0
DWIDTH 8 0
BBX 8 15 0 -3
BITMAP
00
00
0E
1B
18
18
1E
78
18
18
18
18
00
00
00
ENDCHAR

STARTCHAR g
ENCODING 103
SWIDTH 548 0
DWIDTH 8 0
BBX 8 15 0 -3
BITMAP
00
00
00
00
00
1F
33
63
63
67
6F
3B
03
63
3E
ENDCHAR

STARTCHAR h
ENCODING 104
SWIDTH 548 0
DWIDTH 8 0
BBX 8 15 0 -3
BITMAP
00
00
60
60
60
6E
7B
73
63
63
63
63
00
00
00
ENDCHAR

STARTCHAR i
ENCODING 105
SWIDTH 548 0
DWIDTH 8 0
BBX 8 15 0 -3
BITMAP
00
00
0C
0C
00
0C
0C
0C
0C
0C
0C
0C
00
00
00
ENDCHAR

STARTCHAR j
ENCODING 106
SWIDTH 548 0
DWIDTH 8 0
BBX 8 15 0 -3
BITMAP
00
00
06
06
00
06
06
06
06
06
06
06
66
66
3C
ENDCHAR

STARTCHAR k
ENCODING 107
SWIDTH 548 0
DWIDTH 8 0
BBX 8 15 0 -3
BITMAP
00
00
60
60
60
63
66
6C
78
7C
66
63
00
00
00
ENDCHAR

STARTCHAR l
ENCODING 108
SWIDTH 548 0
DWIDTH 8 0
BBX 8 15 0 -3
BITMAP
00
00
1C
0C
0C
0C
0C
0C
0C
0C
0C
0C
00
00
00
ENDCHAR

STARTCHAR m
ENCODING 109
SWIDTH 548 0
DWIDTH 8 0
BBX 8 15 0 -3
BITMAP
00
00
00
00
00
76
6B
6B
6B
63
63
63
00
00
00
ENDCHAR

STARTCHAR n
ENCODING 110
SWIDTH 548 0
DWIDTH 8 0
BBX 8 15 0 -3
BITMAP
00
00
00
00
00
6E
7B
73
63
63
63
63
00
00
00
ENDCHAR

STARTCHAR o
ENCODING 111
SWIDTH 548 0
DWIDTH 8 0
BBX 8 15 0 -3
BITMAP
00
00
00
00
00
1E
33
63
63
63
66
3C
00
00
00
ENDCHAR

STARTCHAR p
ENCODING 112
SWIDTH 548 0
DWIDTH 8 0
BBX 8 15 0 -3
BITMAP
00
00
00
00
00
6E
7B
73
63
63
66
7C
60
60
60
ENDCHAR

STARTCHAR q
ENCODING 113
SWIDTH 548 0
DWIDTH 8 0
BBX 8 15 0 -3
BITMAP
00
00
00
00
00
3B
6F
67
63
63
33
1F
03
03
03
ENDCHAR

STARTCHAR r
ENCODING 114
SWIDTH 548 0
DWIDTH 8 0
BBX 8 15 0 -3
BITMAP
00
00
00
00
00
6E
7B
73
60
60
60
60
00
00
00
ENDCHAR

STARTCHAR s
ENCODING 115
SWIDTH 548 0
DWIDTH 8 0
BBX 8 15 0 -3
BITMAP
00
00
00
00
00
3E
63
38
0E
03
63
3E
00
00
00
ENDCHAR

STARTCHAR t
ENCODING 116
SWIDTH 548 0
DWIDTH 8 0
BBX 8 15 0 -3
BITMAP
00
00
08
18
18
1E
78
18
18
1B
1E
0C
00
00
00
ENDCHAR

STARTCHAR u
ENCODING 117
SWIDTH 548 0
DWIDTH 8 0
BBX 8 15 0 -3
BITMAP
00
00
00
00
00
63
63
63
63
67
6F
3B
00
00
00
ENDCHAR

STARTCHAR v
ENCODING 118
SWIDTH 548 0
DWIDTH 8 0
BBX 8 15 0 -3
BITMAP
00
00
00
00
00
63
63
63
36
3C
1C
0C
00
00
00
ENDCHAR

STARTCHAR w
ENCODING 119
SWIDTH 548 0
DWIDTH 8 0
BBX 8 15 0 -3
BITMAP
00
00
00
00
00
63
63
63
6B
6B
7F
63
00
00
00
ENDCHAR

STARTCHAR x
ENCODING 120
SWIDTH 548 0
DWIDTH 8 0
BBX 8 15 0 -3
BITMAP
00
00
00
00
00
63
36
16
1C
34
36
63
00
00
00
ENDCHAR

STARTCHAR y
ENCODING 121
SWIDTH 548 0
DWIDTH 8 0
BBX 8 15 0 -3
BITMAP
00
00
00
00
00
63
63
63
63
63
36
1E
06
6C
38
ENDCHAR

STARTCHAR z
ENCODING 122
SWIDTH 548 0
DWIDTH 8 0
BBX 8 15 0 -3
BITMAP
00
00
00
00
00
7F
06
0C
18
30
60
7F
00
00
00
ENDCHAR

STARTCHAR braceleft
ENCODING 123
SWIDTH 548 0
DWIDTH 8 0
BBX 8 15 0 -3
BITMAP
00
0E
18
18
18
18
70
70
18
18
18
18
0E
00
00
ENDCHAR

STARTCHAR bar
ENCODING 124
SWIDTH 548 0
DWIDTH 8 0
BBX 8 15 0 -3
BITMAP
00
18
18
18
18
18
18
18
18
18
18
18
18
00
00
ENDCHAR

STARTCHAR braceright
ENCODING 125
SWIDTH 548 0
DWIDTH 8 0
BBX 8 15 0 -3
BITMAP
00
70
18
18
18
18
0E
0E
18
18
18
18
70
00
00
ENDCHAR

STARTCHAR asciitilde
ENCODING 126
SWIDTH 548 0
DWIDTH 8 0
BBX 8 15 0 -3
BITMAP
00
00
00
00
00
00
3B
6E
00
00
00
00
00
00
00
ENDCHAR

STARTCHAR controlDEL
ENCODING 127
SWIDTH 548 0
DWIDTH 8 0
BBX 8 15 0 -3
BITMAP
00
00
00
00
00
00
00
00
00
00
00
00
00
00
00
ENDCHAR

STARTCHAR nonbreakingspace
ENCODING 160
SWIDTH 548 0
DWIDTH 8 0
BBX 8 15 0 -3
BITMAP
00
00
00
00
00
00
00
00
00
00
00
00
00
00
00
ENDCHAR

STARTCHAR exclamdown
ENCODING 161
SWIDTH 548 0
DWIDTH 8 0
BBX 8 15 0 -3
BITMAP
00
00
18
18
00
18
18
18
18
18
18
18
00
00
00
ENDCHAR

STARTCHAR cent
ENCODING 162
SWIDTH 548 0
DWIDTH 8 0
BBX 8 15 0 -3
BITMAP
00
00
00
08
08
0E
1B
38
68
68
6B
3E
08
08
00
ENDCHAR

STARTCHAR sterling
ENCODING 163
SWIDTH 548 0
DWIDTH 8 0
BBX 8 15 0 -3
BITMAP
00
00
1E
33
30
78
30
78
30
30
33
3E
00
00
00
ENDCHAR

STARTCHAR currency
ENCODING 164
SWIDTH 548 0
DWIDTH 8 0
BBX 8 15 0 -3
BITMAP
00
00
00
63
3E
1E
36
36
3C
3E
63
00
00
00
00
ENDCHAR

STARTCHAR yen
ENCODING 165
SWIDTH 548 0
DWIDTH 8 0
BBX 8 15 0 -3
BITMAP
00
00
63
63
66
36
3C
18
7E
18
7E
18
18
00
00
ENDCHAR

STARTCHAR brokenbar
ENCODING 166
SWIDTH 548 0
DWIDTH 8 0
BBX 8 15 0 -3
BITMAP
00
18
18
18
18
18
00
00
18
18
18
18
18
00
00
ENDCHAR

STARTCHAR section
ENCODING 167
SWIDTH 548 0
DWIDTH 8 0
BBX 8 15 0 -3
BITMAP
00
00
3E
60
7C
36
66
66
6C
3E
06
7C
00
00
00
ENDCHAR

STARTCHAR dieresis
ENCODING 168
SWIDTH 548 0
DWIDTH 8 0
BBX 8 15 0 -3
BITMAP
66
66
00
00
00
00
00
00
00
00
00
00
00
00
00
ENDCHAR

STARTCHAR copyright
ENCODING 169
SWIDTH 548 0
DWIDTH 8 0
BBX 8 15 0 -3
BITMAP
00
00
00
1E
21
4D
51
51
55
49
42
3C
00
00
00
ENDCHAR

STARTCHAR ordfeminine
ENCODING 170
SWIDTH 548 0
DWIDTH 8 0
BBX 8 15 0 -3
BITMAP
00
00
1E
33
0F
3B
63
6F
3B
00
00
7F
00
00
00
ENDCHAR

STARTCHAR guillemotleft
ENCODING 171
SWIDTH 548 0
DWIDTH 8 0
BBX 8 15 0 -3
BITMAP
00
00
00
00
01
1B
36
6C
6C
36
1B
00
00
00
00
ENDCHAR

STARTCHAR logicalnot
ENCODING 172
SWIDTH 548 0
DWIDTH 8 0
BBX 8 15 0 -3
BITMAP
00
00
00
00
00
00
7E
06
06
06
00
00
00
00
00
ENDCHAR

STARTCHAR softhyphen
ENCODING 173
SWIDTH 548 0
DWIDTH 8 0
BBX 8 15 0 -3
BITMAP
00
00
00
00
00
00
00
3E
00
00
00
00
00
00
00
ENDCHAR

STARTCHAR registered
ENCODING 174
SWIDTH 548 0
DWIDTH 8 0
BBX 8 15 0 -3
BITMAP
00
00
00
1E
21
4D
55
59
55
55
42
3C
00
00
00
ENDCHAR

STARTCHAR macron
ENCODING 175
SWIDTH 548 0
DWIDTH 8 0
BBX 8 15 0 -3
BITMAP
00
00
00
7E
00
00
00
00
00
00
00
00
00
00
00
ENDCHAR

STARTCHAR degree
ENCODING 176
SWIDTH 548 0
DWIDTH 8 0
BBX 8 15 0 -3
BITMAP
00
00
3C
66
66
3C
00
00
00
00
00
00
00
00
00
ENDCHAR

STARTCHAR plusminus
ENCODING 177
SWIDTH 548 0
DWIDTH 8 0
BBX 8 15 0 -3
BITMAP
00
00
00
00
18
18
7E
18
18
00
00
7E
00
00
00
ENDCHAR

STARTCHAR twosuperior
ENCODING 178
SWIDTH 548 0
DWIDTH 8 0
BBX 8 15 0 -3
BITMAP
00
00
3C
66
0C
18
32
7E
00
00
00
00
00
00
00
ENDCHAR

STARTCHAR threesuperior
ENCODING 179
SWIDTH 548 0
DWIDTH 8 0
BBX 8 15 0 -3
BITMAP
00
00
7E
06
1C
06
66
3C
00
00
00
00
00
00
00
ENDCHAR

STARTCHAR acute
ENCODING 180
SWIDTH 548 0
DWIDTH 8 0
BBX 8 15 0 -3
BITMAP
0C
18
30
00
00
00
00
00
00
00
00
00
00
00
00
ENDCHAR

STARTCHAR mu
ENCODING 181
SWIDTH 548 0
DWIDTH 8 0
BBX 8 15 0 -3
BITMAP
00
00
00
00
00
33
33
33
33
37
3F
3B
30
30
60
ENDCHAR

STARTCHAR paragraph
ENCODING 182
SWIDTH 548 0
DWIDTH 8 0
BBX 8 15 0 -3
BITMAP
00
00
3C
7F
7B
7B
7B
3B
1F
1B
1B
1B
00
00
00
ENDCHAR

STARTCHAR periodcentered
ENCODING 183
SWIDTH 548 0
DWIDTH 8 0
BBX 8 15 0 -3
BITMAP
00
00
00
00
00
00
18
3C
3C
18
00
00
00
00
00
ENDCHAR

STARTCHAR cedilla
ENCODING 184
SWIDTH 548 0
DWIDTH 8 0
BBX 8 15 0 -3
BITMAP
00
00
00
00
00
00
00
00
00
00
00
00
06
0C
78
ENDCHAR

STARTCHAR onesuperior
ENCODING 185
SWIDTH 548 0
DWIDTH 8 0
BBX 8 15 0 -3
BITMAP
00
00
18
38
18
18
18
18
00
00
00
00
00
00
00
ENDCHAR

STARTCHAR ordmasculine
ENCODING 186
SWIDTH 548 0
DWIDTH 8 0
BBX 8 15 0 -3
BITMAP
00
00
1E
33
63
63
63
66
3C
00
00
7F
00
00
00
ENDCHAR

STARTCHAR guillemotright
ENCODING 187
SWIDTH 548 0
DWIDTH 8 0
BBX 8 15 0 -3
BITMAP
00
00
00
00
00
6C
36
1B
1B
36
6C
40
00
00
00
ENDCHAR

STARTCHAR onequarter
ENCODING 188
SWIDTH 548 0
DWIDTH 8 0
BBX 8 15 0 -3
BITMAP
00
30
70
31
33
36
0C
18
36
6E
57
3E
06
06
00
ENDCHAR

STARTCHAR onehalf
ENCODING 189
SWIDTH 548 0
DWIDTH 8 0
BBX 8 15 0 -3
BITMAP
00
30
70
31
33
36
0C
18
30
6E
5B
06
0D
1F
00
ENDCHAR

STARTCHAR threequarters
ENCODING 190
SWIDTH 548 0
DWIDTH 8 0
BBX 8 15 0 -3
BITMAP
00
70
18
31
1B
76
0C
18
36
6E
D7
BE
06
06
00
ENDCHAR

STARTCHAR questiondown
ENCODING 191
SWIDTH 548 0
DWIDTH 8 0
BBX 8 15 0 -3
BITMAP
00
00
0C
0C
00
0C
0C
18
30
63
66
3C
00
00
00
ENDCHAR

STARTCHAR Agrave
ENCODING 192
SWIDTH 548 0
DWIDTH 8 0
BBX 8 15 0 -3
BITMAP
30
18
0C
0C
1C
14
36
36
3E
63
63
63
00
00
00
ENDCHAR

STARTCHAR Aacute
ENCODING 193
SWIDTH 548 0
DWIDTH 8 0
BBX 8 15 0 -3
BITMAP
0C
18
30
0C
1C
14
36
36
3E
63
63
63
00
00
00
ENDCHAR

STARTCHAR Acircumflex
ENCODING 194
SWIDTH 548 0
DWIDTH 8 0
BBX 8 15 0 -3
BITMAP
0C
1E
30
0C
1C
14
36
36
3E
63
63
63
00
00
00
ENDCHAR

STARTCHAR Atilde
ENCODING 195
SWIDTH 548 0
DWIDTH 8 0
BBX 8 15 0 -3
BITMAP
00
3B
6E
0C
1C
14
36
36
3E
63
63
63
00
00
00
ENDCHAR

STARTCHAR Adieresis
ENCODING 196
SWIDTH 548 0
DWIDTH 8 0
BBX 8 15 0 -3
BITMAP
33
33
0C
0C
1C
14
36
36
3E
63
63
63
00
00
00
ENDCHAR

STARTCHAR Aring
ENCODING 197
SWIDTH 548 0
DWIDTH 8 0
BBX 8 15 0 -3
BITMAP
0C
12
12
0C
1C
14
36
36
3E
63
63
63
00
00
00
ENDCHAR

STARTCHAR AE
ENCODING 198
SWIDTH 548 0
DWIDTH 8 0
BBX 8 15 0 -3
BITMAP
00
00
1F
1E
3C
2C
2F
6E
7C
6C
6F
6E
00
00
00
ENDCHAR

STARTCHAR Ccedilla
ENCODING 199
SWIDTH 548 0
DWIDTH 8 0
BBX 8 15 0 -3
BITMAP
00
00
0E
1B
30
60
60
60
60
60
33
1E
0C
18
70
ENDCHAR

STARTCHAR Egrave
ENCODING 200
SWIDTH 548 0
DWIDTH 8 0
BBX 8 15 0 -3
BITMAP
30
18
0C
0F
78
60
6F
78
60
60
6F
78
00
00
00
ENDCHAR

STARTCHAR Eacute
ENCODING 201
SWIDTH 548 0
DWIDTH 8 0
BBX 8 15 0 -3
BITMAP
0C
18
30
0F
78
60
6F
78
60
60
6F
78
00
00
00
ENDCHAR

STARTCHAR Ecircumflex
ENCODING 202
SWIDTH 548 0
DWIDTH 8 0
BBX 8 15 0 -3
BITMAP
0C
1E
30
0F
78
60
6F
78
60
60
6F
78
00
00
00
ENDCHAR

STARTCHAR Edieresis
ENCODING 203
SWIDTH 548 0
DWIDTH 8 0
BBX 8 15 0 -3
BITMAP
33
33
00
0F
78
60
6F
78
60
60
6F
78
00
00
00
ENDCHAR

STARTCHAR Igrave
ENCODING 204
SWIDTH 548 0
DWIDTH 8 0
BBX 8 15 0 -3
BITMAP
18
0C
06
0E
1C
0C
0C
0C
0C
0C
0E
1C
00
00
00
ENDCHAR

STARTCHAR Iacute
ENCODING 205
SWIDTH 548 0
DWIDTH 8 0
BBX 8 15 0 -3
BITMAP
06
0C
18
0E
1C
0C
0C
0C
0C
0C
0E
1C
00
00
00
ENDCHAR

STARTCHAR Icircumflex
ENCODING 206
SWIDTH 548 0
DWIDTH 8 0
BBX 8 15 0 -3
BITMAP
0C
1E
30
0E
1C
0C
0C
0C
0C
0C
0E
1C
00
00
00
ENDCHAR

STARTCHAR Idieresis
ENCODING 207
SWIDTH 548 0
DWIDTH 8 0
BBX 8 15 0 -3
BITMAP
33
33
00
0E
1C
0C
0C
0C
0C
0C
0E
1C
00
00
00
ENDCHAR

STARTCHAR Eth
ENCODING 208
SWIDTH 548 0
DWIDTH 8 0
BBX 8 15 0 -3
BITMAP
00
00
3C
36
33
33
7B
33
33
36
3C
38
00
00
00
ENDCHAR

STARTCHAR Ntilde
ENCODING 209
SWIDTH 548 0
DWIDTH 8 0
BBX 8 15 0 -3
BITMAP
00
3B
6E
00
63
73
7B
7B
6F
67
67
63
00
00
00
ENDCHAR

STARTCHAR Ograve
ENCODING 210
SWIDTH 548 0
DWIDTH 8 0
BBX 8 15 0 -3
BITMAP
18
0C
00
1E
33
63
63
63
63
63
66
3C
00
00
00
ENDCHAR

STARTCHAR Oacute
ENCODING 211
SWIDTH 548 0
DWIDTH 8 0
BBX 8 15 0 -3
BITMAP
06
0C
00
1E
33
63
63
63
63
63
66
3C
00
00
00
ENDCHAR

STARTCHAR Ocircumflex
ENCODING 212
SWIDTH 548 0
DWIDTH 8 0
BBX 8 15 0 -3
BITMAP
0C
1E
30
1E
33
63
63
63
63
63
66
3C
00
00
00
ENDCHAR

STARTCHAR Otilde
ENCODING 213
SWIDTH 548 0
DWIDTH 8 0
BBX 8 15 0 -3
BITMAP
00
3B
6E
1E
33
63
63
63
63
63
66
3C
00
00
00
ENDCHAR

STARTCHAR Odieresis
ENCODING 214
SWIDTH 548 0
DWIDTH 8 0
BBX 8 15 0 -3
BITMAP
33
33
00
1E
33
63
63
63
63
63
66
3C
00
00
00
ENDCHAR

STARTCHAR multiply
ENCODING 215
SWIDTH 548 0
DWIDTH 8 0
BBX 8 15 0 -3
BITMAP
00
00
00
00
00
66
3C
18
3C
66
00
00
00
00
00
ENDCHAR

STARTCHAR Oslash
ENCODING 216
SWIDTH 548 0
DWIDTH 8 0
BBX 8 15 0 -3
BITMAP
00
06
1E
37
67
6F
6B
6B
7B
73
76
3C
30
00
00
ENDCHAR

STARTCHAR Ugrave
ENCODING 217
SWIDTH 548 0
DWIDTH 8 0
BBX 8 15 0 -3
BITMAP
30
18
0C
63
63
63
63
63
66
66
66
3C
00
00
00
ENDCHAR

STARTCHAR Uacute
ENCODING 218
SWIDTH 548 0
DWIDTH 8 0
BBX 8 15 0 -3
BITMAP
06
0C
18
63
63
63
63
63
66
66
66
3C
00
00
00
ENDCHAR

STARTCHAR Ucircumflex
ENCODING 219
SWIDTH 548 0
DWIDTH 8 0
BBX 8 15 0 -3
BITMAP
0C
1E
30
03
63
63
63
63
66
66
66
3C
00
00
00
ENDCHAR

STARTCHAR Udieresis
ENCODING 220
SWIDTH 548 0
DWIDTH 8 0
BBX 8 15 0 -3
BITMAP
33
33
00
63
63
63
63
63
66
66
66
3C
00
00
00
ENDCHAR

STARTCHAR Yacute
ENCODING 221
SWIDTH 548 0
DWIDTH 8 0
BBX 8 15 0 -3
BITMAP
06
0C
18
63
63
66
36
3C
18
18
18
18
00
00
00
ENDCHAR

STARTCHAR Thorn
ENCODING 222
SWIDTH 548 0
DWIDTH 8 0
BBX 8 15 0 -3
BITMAP
00
00
60
60
6E
7B
63
63
66
7C
60
60
00
00
00
ENDCHAR

STARTCHAR germandbls
ENCODING 223
SWIDTH 548 0
DWIDTH 8 0
BBX 8 15 0 -3
BITMAP
00
00
0E
1B
73
62
6C
63
63
63
66
6C
00
00
00
ENDCHAR

STARTCHAR agrave
ENCODING 224
SWIDTH 548 0
DWIDTH 8 0
BBX 8 15 0 -3
BITMAP
00
18
0C
06
00
1E
33
0F
3B
63
6F
3B
00
00
00
ENDCHAR

STARTCHAR aacute
ENCODING 225
SWIDTH 548 0
DWIDTH 8 0
BBX 8 15 0 -3
BITMAP
00
06
0C
18
00
1E
33
0F
3B
63
6F
3B
00
00
00
ENDCHAR

STARTCHAR acircumflex
ENCODING 226
SWIDTH 548 0
DWIDTH 8 0
BBX 8 15 0 -3
BITMAP
0C
1E
33
60
00
1E
33
0F
3B
63
6F
3B
00
00
00
ENDCHAR

STARTCHAR atilde
ENCODING 227
SWIDTH 548 0
DWIDTH 8 0
BBX 8 15 0 -3
BITMAP
00
00
3B
6E
00
1E
33
0F
3B
63
6F
3B
00
00
00
ENDCHAR

STARTCHAR adieresis
ENCODING 228
SWIDTH 548 0
DWIDTH 8 0
BBX 8 15 0 -3
BITMAP
00
00
36
36
00
1E
33
0F
3B
63
6F
3B
00
00
00
ENDCHAR

STARTCHAR aring
ENCODING 229
SWIDTH 548 0
DWIDTH 8 0
BBX 8 15 0 -3
BITMAP
1C
36
36
1C
00
1E
33
0F
3B
63
6F
3B
00
00
00
ENDCHAR

STARTCHAR ae
ENCODING 230
SWIDTH 548 0
DWIDTH 8 0
BBX 8 15 0 -3
BITMAP
00
00
00
00
00
3E
6B
1B
3E
6C
6B
36
00
00
00
ENDCHAR

STARTCHAR ccedilla
ENCODING 231
SWIDTH 548 0
DWIDTH 8 0
BBX 8 15 0 -3
BITMAP
00
00
00
00
00
0E
1B
30
60
60
63
3E
0C
18
70
ENDCHAR

STARTCHAR egrave
ENCODING 232
SWIDTH 548 0
DWIDTH 8 0
BBX 8 15 0 -3
BITMAP
00
30
18
0C
00
1E
33
66
7C
60
63
3E
00
00
00
ENDCHAR

STARTCHAR eacute
ENCODING 233
SWIDTH 548 0
DWIDTH 8 0
BBX 8 15 0 -3
BITMAP
00
06
0C
18
00
1E
33
66
7C
60
63
3E
00
00
00
ENDCHAR

STARTCHAR ecircumflex
ENCODING 234
SWIDTH 548 0
DWIDTH 8 0
BBX 8 15 0 -3
BITMAP
0C
1E
33
60
00
1E
33
66
7C
60
63
3E
00
00
00
ENDCHAR

STARTCHAR edieresis
ENCODING 235
SWIDTH 548 0
DWIDTH 8 0
BBX 8 15 0 -3
BITMAP
00
00
33
33
00
1E
33
66
7C
60
63
3E
00
00
00
ENDCHAR

STARTCHAR igrave
ENCODING 236
SWIDTH 548 0
DWIDTH 8 0
BBX 8 15 0 -3
BITMAP
00
30
18
0C
00
0C
0C
0C
0C
0C
0C
0C
00
00
00
ENDCHAR

STARTCHAR iacute
ENCODING 237
SWIDTH 548 0
DWIDTH 8 0
BBX 8 15 0 -3
BITMAP
00
03
06
0C
00
0C
0C
0C
0C
0C
0C
0C
00
00
00
ENDCHAR

STARTCHAR icircumflex
ENCODING 238
SWIDTH 548 0
DWIDTH 8 0
BBX 8 15 0 -3
BITMAP
0C
1E
33
60
00
0C
0C
0C
0C
0C
0C
0C
00
00
00
ENDCHAR

STARTCHAR idieresis
ENCODING 239
SWIDTH 548 0
DWIDTH 8 0
BBX 8 15 0 -3
BITMAP
00
00
33
33
00
0C
0C
0C
0C
0C
0C
0C
00
00
00
ENDCHAR

STARTCHAR eth
ENCODING 240
SWIDTH 548 0
DWIDTH 8 0
BBX 8 15 0 -3
BITMAP
00
60
3C
78
0C
1E
33
63
63
63
66
3C
00
00
00
ENDCHAR

STARTCHAR ntilde
ENCODING 241
SWIDTH 548 0
DWIDTH 8 0
BBX 8 15 0 -3
BITMAP
00
00
3B
6E
00
6E
7B
73
63
63
63
63
00
00
00
ENDCHAR

STARTCHAR ograve
ENCODING 242
SWIDTH 548 0
DWIDTH 8 0
BBX 8 15 0 -3
BITMAP
00
30
18
0C
00
1E
33
63
63
63
66
3C
00
00
00
ENDCHAR

STARTCHAR oacute
ENCODING 243
SWIDTH 548 0
DWIDTH 8 0
BBX 8 15 0 -3
BITMAP
00
06
0C
18
00
1E
33
63
63
63
66
3C
00
00
00
ENDCHAR

STARTCHAR ocircumflex
ENCODING 244
SWIDTH 548 0
DWIDTH 8 0
BBX 8 15 0 -3
BITMAP
0C
1E
33
60
00
1E
33
63
63
63
66
3C
00
00
00
ENDCHAR

STARTCHAR otilde
ENCODING 245
SWIDTH 548 0
DWIDTH 8 0
BBX 8 15 0 -3
BITMAP
00
00
3B
6E
00
1E
33
63
63
63
66
3C
00
00
00
ENDCHAR

STARTCHAR odieresis
ENCODING 246
SWIDTH 548 0
DWIDTH 8 0
BBX 8 15 0 -3
BITMAP
00
00
33
33
00
1E
33
63
63
63
66
3C
00
00
00
ENDCHAR

STARTCHAR divide
ENCODING 247
SWIDTH 548 0
DWIDTH 8 0
BBX 8 15 0 -3
BITMAP
00
00
00
00
18
18
00
7E
00
18
18
00
00
00
00
ENDCHAR

STARTCHAR oslash
ENCODING 248
SWIDTH 548 0
DWIDTH 8 0
BBX 8 15 0 -3
BITMAP
00
00
00
00
06
1E
37
6F
6B
7B
76
3C
30
00
00
ENDCHAR

STARTCHAR ugrave
ENCODING 249
SWIDTH 548 0
DWIDTH 8 0
BBX 8 15 0 -3
BITMAP
00
30
18
0C
00
63
63
63
63
67
6F
3B
00
00
00
ENDCHAR

STARTCHAR uacute
ENCODING 250
SWIDTH 548 0
DWIDTH 8 0
BBX 8 15 0 -3
BITMAP
00
06
0C
18
00
63
63
63
63
67
6F
3B
00
00
00
ENDCHAR

STARTCHAR ucircumflex
ENCODING 251
SWIDTH 548 0
DWIDTH 8 0
BBX 8 15 0 -3
BITMAP
0C
1E
33
60
00
63
63
63
63
67
6F
3B
00
00
00
ENDCHAR

STARTCHAR udieresis
ENCODING 252
SWIDTH 548 0
DWIDTH 8 0
BBX 8 15 0 -3
BITMAP
00
00
33
33
00
63
63
63
63
67
6F
3B
00
00
00
ENDCHAR

STARTCHAR yacute
ENCODING 253
SWIDTH 548 0
DWIDTH 8 0
BBX 8 15 0 -3
BITMAP
00
06
0C
18
00
63
63
63
63
63
36
1E
06
6C
38
ENDCHAR

STARTCHAR thorn
ENCODING 254
SWIDTH 548 0
DWIDTH 8 0
BBX 8 15 0 -3
BITMAP
00
00
00
60
60
6E
7B
63
63
63
66
7C
60
60
00
ENDCHAR

STARTCHAR ydieresis
ENCODING 255
SWIDTH 548 0
DWIDTH 8 0
BBX 8 15 0 -3
BITMAP
00
00
33
33
00
63
63
63
63
63
36
1E
06
6C
38
ENDCHAR

STARTCHAR OE
ENCODING 338
SWIDTH 548 0
DWIDTH 8 0
BBX 8 15 0 -3
BITMAP
00
00
3F
7E
6C
6C
6F
6E
6C
6C
6F
3E
00
00
00
ENDCHAR

STARTCHAR oe
ENCODING 339
SWIDTH 548 0
DWIDTH 8 0
BBX 8 15 0 -3
BITMAP
00
00
00
00
00
3E
7B
6B
6E
6C
7B
36
00
00
00
ENDCHAR

STARTCHAR Scaron
ENCODING 352
SWIDTH 548 0
DWIDTH 8 0
BBX 8 15 0 -3
BITMAP
36
1C
3E
63
60
30
1C
06
03
63
63
3E
00
00
00
ENDCHAR

STARTCHAR scaron
ENCODING 353
SWIDTH 548 0
DWIDTH 8 0
BBX 8 15 0 -3
BITMAP
00
36
1C
08
00
3E
63
38
0E
03
63
3E
00
00
00
ENDCHAR

STARTCHAR uring
ENCODING 367
SWIDTH 548 0
DWIDTH 8 0
BBX 8 15 0 -3
BITMAP
1C
36
36
1C
00
63
63
63
63
67
6F
3B
00
00
00
ENDCHAR

STARTCHAR Ydieresis
ENCODING 376
SWIDTH 548 0
DWIDTH 8 0
BBX 8 15 0 -3
BITMAP
33
00
63
63
66
36
3C
18
18
18
18
18
00
00
00
ENDCHAR

STARTCHAR Zcaron
ENCODING 381
SWIDTH 548 0
DWIDTH 8 0
BBX 8 15 0 -3
BITMAP
36
1C
0F
7B
06
0C
0C
18
18
30
6F
78
00
00
00
ENDCHAR

STARTCHAR zcaron
ENCODING 382
SWIDTH 548 0
DWIDTH 8 0
BBX 8 15 0 -3
BITMAP
00
36
1C
08
00
7F
06
0C
18
30
60
7F
00
00
00
ENDCHAR

STARTCHAR florin
ENCODING 402
SWIDTH 548 0
DWIDTH 8 0
BBX 8 15 0 -3
BITMAP
00
00
0E
1B
18
18
1E
78
18
18
18
58
30
00
00
ENDCHAR

STARTCHAR circumflex
ENCODING 710
SWIDTH 548 0
DWIDTH 8 0
BBX 8 15 0 -3
BITMAP
0C
1E
30
00
00
00
00
00
00
00
00
00
00
00
00
ENDCHAR

STARTCHAR tilde
ENCODING 732
SWIDTH 548 0
DWIDTH 8 0
BBX 8 15 0 -3
BITMAP
00
3B
6E
00
00
00
00
00
00
00
00
00
00
00
00
ENDCHAR

STARTCHAR Alphatonos
ENCODING 902
SWIDTH 548 0
DWIDTH 8 0
BBX 8 15 0 -3
BITMAP
18
30
6C
0C
1C
14
36
3E
3A
63
63
63
00
00
00
ENDCHAR

STARTCHAR Epsilontonos
ENCODING 904
SWIDTH 548 0
DWIDTH 8 0
BBX 8 15 0 -3
BITMAP
18
30
6F
18
70
60
6E
78
60
60
6F
78
00
00
00
ENDCHAR

STARTCHAR Etatonos
ENCODING 905
SWIDTH 548 0
DWIDTH 8 0
BBX 8 15 0 -3
BITMAP
18
30
63
03
63
63
6F
7B
63
63
63
63
00
00
00
ENDCHAR

STARTCHAR Iotatonos
ENCODING 906
SWIDTH 548 0
DWIDTH 8 0
BBX 8 15 0 -3
BITMAP
18
30
6E
1C
0C
0C
0C
0C
0C
0C
0E
1C
00
00
00
ENDCHAR

STARTCHAR Omicrontonos
ENCODING 908
SWIDTH 548 0
DWIDTH 8 0
BBX 8 15 0 -3
BITMAP
18
30
6E
1B
33
63
63
63
63
63
66
3C
00
00
00
ENDCHAR

STARTCHAR Upsilontonos
ENCODING 910
SWIDTH 548 0
DWIDTH 8 0
BBX 8 15 0 -3
BITMAP
30
60
43
63
66
36
3C
18
18
18
18
18
00
00
00
ENDCHAR

STARTCHAR Omegatonos
ENCODING 911
SWIDTH 548 0
DWIDTH 8 0
BBX 8 15 0 -3
BITMAP
18
30
6E
1B
33
63
63
63
63
36
36
77
00
00
00
ENDCHAR

STARTCHAR iotadieresistonos
ENCODING 912
SWIDTH 548 0
DWIDTH 8 0
BBX 8 15 0 -3
BITMAP
0C
18
66
66
00
30
30
30
30
30
36
1C
00
00
00
ENDCHAR

STARTCHAR Alpha
ENCODING 913
SWIDTH 548 0
DWIDTH 8 0
BBX 8 15 0 -3
BITMAP
00
00
0C
0C
1C
14
36
3E
3A
63
63
63
00
00
00
ENDCHAR

STARTCHAR Beta
ENCODING 914
SWIDTH 548 0
DWIDTH 8 0
BBX 8 15 0 -3
BITMAP
00
00
0E
1B
73
66
7C
77
63
66
7C
70
00
00
00
ENDCHAR

STARTCHAR Gamma
ENCODING 915
SWIDTH 548 0
DWIDTH 8 0
BBX 8 15 0 -3
BITMAP
00
00
0F
7B
30
30
30
30
30
30
30
30
00
00
00
ENDCHAR

STARTCHAR Deltagreek
ENCODING 916
SWIDTH 548 0
DWIDTH 8 0
BBX 8 15 0 -3
BITMAP
00
00
0C
0C
1C
14
36
36
32
63
7F
7F
00
00
00
ENDCHAR

STARTCHAR Epsilon
ENCODING 917
SWIDTH 548 0
DWIDTH 8 0
BBX 8 15 0 -3
BITMAP
00
00
0F
78
60
60
6E
78
60
60
6F
78
00
00
00
ENDCHAR

STARTCHAR Zeta
ENCODING 918
SWIDTH 548 0
DWIDTH 8 0
BBX 8 15 0 -3
BITMAP
00
00
0F
7B
06
0C
0C
18
18
30
6F
78
00
00
00
ENDCHAR

STARTCHAR Eta
ENCODING 919
SWIDTH 548 0
DWIDTH 8 0
BBX 8 15 0 -3
BITMAP
00
00
63
63
63
63
6F
7B
63
63
63
63
00
00
00
ENDCHAR

STARTCHAR Theta
ENCODING 920
SWIDTH 548 0
DWIDTH 8 0
BBX 8 15 0 -3
BITMAP
00
00
1E
33
63
63
6F
7B
63
63
66
3C
00
00
00
ENDCHAR

STARTCHAR Iota
ENCODING 921
SWIDTH 548 0
DWIDTH 8 0
BBX 8 15 0 -3
BITMAP
00
00
0E
1C
0C
0C
0C
0C
0C
0C
0E
1C
00
00
00
ENDCHAR

STARTCHAR Kappa
ENCODING 922
SWIDTH 548 0
DWIDTH 8 0
BBX 8 15 0 -3
BITMAP
00
00
63
66
6C
78
70
70
78
6C
66
63
00
00
00
ENDCHAR

STARTCHAR Lambda
ENCODING 923
SWIDTH 548 0
DWIDTH 8 0
BBX 8 15 0 -3
BITMAP
00
00
0C
0C
1C
14
36
36
32
63
63
63
00
00
00
ENDCHAR

STARTCHAR Mu
ENCODING 924
SWIDTH 548 0
DWIDTH 8 0
BBX 8 15 0 -3
BITMAP
00
00
63
63
77
7F
7B
6B
63
63
63
63
00
00
00
ENDCHAR

STARTCHAR Nu
ENCODING 925
SWIDTH 548 0
DWIDTH 8 0
BBX 8 15 0 -3
BITMAP
00
00
63
63
73
7B
7B
6F
67
67
63
63
00
00
00
ENDCHAR

STARTCHAR Xi
ENCODING 926
SWIDTH 548 0
DWIDTH 8 0
BBX 8 15 0 -3
BITMAP
00
00
0F
7B
60
00
0E
38
00
03
6F
78
00
00
00
ENDCHAR

STARTCHAR Omicron
ENCODING 927
SWIDTH 548 0
DWIDTH 8 0
BBX 8 15 0 -3
BITMAP
00
00
1E
33
63
63
63
63
63
63
66
3C
00
00
00
ENDCHAR

STARTCHAR Pi
ENCODING 928
SWIDTH 548 0
DWIDTH 8 0
BBX 8 15 0 -3
BITMAP
00
00
0F
7E
36
36
36
36
36
36
36
36
00
00
00
ENDCHAR

STARTCHAR Rho
ENCODING 929
SWIDTH 548 0
DWIDTH 8 0
BBX 8 15 0 -3
BITMAP
00
00
0E
1B
73
63
66
7C
70
60
60
60
00
00
00
ENDCHAR

STARTCHAR Sigma
ENCODING 931
SWIDTH 548 0
DWIDTH 8 0
BBX 8 15 0 -3
BITMAP
00
00
0F
78
30
18
0C
0C
18
30
6F
78
00
00
00
ENDCHAR

STARTCHAR Tau
ENCODING 932
SWIDTH 548 0
DWIDTH 8 0
BBX 8 15 0 -3
BITMAP
00
00
0F
78
18
18
18
18
18
18
18
18
00
00
00
ENDCHAR

STARTCHAR Upsilon
ENCODING 933
SWIDTH 548 0
DWIDTH 8 0
BBX 8 15 0 -3
BITMAP
00
00
63
63
66
36
3C
18
18
18
18
18
00
00
00
ENDCHAR

STARTCHAR Phi
ENCODING 934
SWIDTH 548 0
DWIDTH 8 0
BBX 8 15 0 -3
BITMAP
00
00
08
1E
3B
6B
6B
6B
6B
6E
3C
08
00
00
00
ENDCHAR

STARTCHAR Chi
ENCODING 935
SWIDTH 548 0
DWIDTH 8 0
BBX 8 15 0 -3
BITMAP
00
00
63
63
36
36
1C
1C
36
36
63
63
00
00
00
ENDCHAR

STARTCHAR Psi
ENCODING 936
SWIDTH 548 0
DWIDTH 8 0
BBX 8 15 0 -3
BITMAP
00
00
0B
6B
6B
6B
6B
6E
38
18
18
18
00
00
00
ENDCHAR

STARTCHAR Omegagreek
ENCODING 937
SWIDTH 548 0
DWIDTH 8 0
BBX 8 15 0 -3
BITMAP
00
00
1E
33
63
63
63
63
63
36
36
77
00
00
00
ENDCHAR

STARTCHAR Iotadieresis
ENCODING 938
SWIDTH 548 0
DWIDTH 8 0
BBX 8 15 0 -3
BITMAP
33
33
00
0E
1C
0C
0C
0C
0C
0C
0E
1C
00
00
00
ENDCHAR

STARTCHAR Upsilondieresis
ENCODING 939
SWIDTH 548 0
DWIDTH 8 0
BBX 8 15 0 -3
BITMAP
66
66
00
63
66
36
3C
18
18
18
18
18
00
00
00
ENDCHAR

STARTCHAR alphatonos
ENCODING 940
SWIDTH 548 0
DWIDTH 8 0
BBX 8 15 0 -3
BITMAP
00
0C
18
30
00
1B
3E
6C
6C
6C
7E
33
00
00
00
ENDCHAR

STARTCHAR epsilontonos
ENCODING 941
SWIDTH 548 0
DWIDTH 8 0
BBX 8 15 0 -3
BITMAP
00
0C
18
30
00
1E
33
60
3C
60
63
3E
00
00
00
ENDCHAR

STARTCHAR etatonos
ENCODING 942
SWIDTH 548 0
DWIDTH 8 0
BBX 8 15 0 -3
BITMAP
00
0C
18
30
00
6E
7B
73
63
63
63
63
03
03
03
ENDCHAR

STARTCHAR iotatonos
ENCODING 943
SWIDTH 548 0
DWIDTH 8 0
BBX 8 15 0 -3
BITMAP
00
0C
18
30
00
30
30
30
30
30
36
1C
00
00
00
ENDCHAR

STARTCHAR upsilondieresistonos
ENCODING 944
SWIDTH 548 0
DWIDTH 8 0
BBX 8 15 0 -3
BITMAP
0C
18
66
66
00
66
63
63
63
63
66
3C
00
00
00
ENDCHAR

STARTCHAR alpha
ENCODING 945
SWIDTH 548 0
DWIDTH 8 0
BBX 8 15 0 -3
BITMAP
00
00
00
00
00
1B
3E
6C
6C
6C
7E
33
00
00
00
ENDCHAR

STARTCHAR beta
ENCODING 946
SWIDTH 548 0
DWIDTH 8 0
BBX 8 15 0 -3
BITMAP
00
00
0E
1B
73
62
6C
62
63
63
6E
68
60
60
00
ENDCHAR

STARTCHAR gamma
ENCODING 947
SWIDTH 548 0
DWIDTH 8 0
BBX 8 15 0 -3
BITMAP
00
00
00
00
00
63
33
33
16
1E
1C
18
18
30
30
ENDCHAR

STARTCHAR delta
ENCODING 948
SWIDTH 548 0
DWIDTH 8 0
BBX 8 15 0 -3
BITMAP
00
0E
38
60
38
1C
36
66
66
66
6C
38
00
00
00
ENDCHAR

STARTCHAR epsilon
ENCODING 949
SWIDTH 548 0
DWIDTH 8 0
BBX 8 15 0 -3
BITMAP
00
00
00
00
00
1E
33
60
3C
60
63
3E
00
00
00
ENDCHAR

STARTCHAR zeta
ENCODING 950
SWIDTH 548 0
DWIDTH 8 0
BBX 8 15 0 -3
BITMAP
00
00
63
3E
18
30
30
60
60
60
60
3E
03
03
0E
ENDCHAR

STARTCHAR eta
ENCODING 951
SWIDTH 548 0
DWIDTH 8 0
BBX 8 15 0 -3
BITMAP
00
00
00
00
00
6E
7B
73
63
63
63
63
03
03
03
ENDCHAR

STARTCHAR theta
ENCODING 952
SWIDTH 548 0
DWIDTH 8 0
BBX 8 15 0 -3
BITMAP
00
00
1C
36
33
63
6F
7B
63
66
36
1C
00
00
00
ENDCHAR

STARTCHAR iota
ENCODING 953
SWIDTH 548 0
DWIDTH 8 0
BBX 8 15 0 -3
BITMAP
00
00
00
00
00
30
30
30
30
30
36
1C
00
00
00
ENDCHAR

STARTCHAR kappa
ENCODING 954
SWIDTH 548 0
DWIDTH 8 0
BBX 8 15 0 -3
BITMAP
00
00
00
00
00
63
66
6C
78
6C
66
63
00
00
00
ENDCHAR

STARTCHAR lambda
ENCODING 955
SWIDTH 548 0
DWIDTH 8 0
BBX 8 15 0 -3
BITMAP
00
00
30
30
18
18
1C
1E
16
33
33
63
00
00
00
ENDCHAR

STARTCHAR mugreek
ENCODING 956
SWIDTH 548 0
DWIDTH 8 0
BBX 8 15 0 -3
BITMAP
00
00
00
00
00
33
33
33
33
37
3F
3B
30
30
60
ENDCHAR

STARTCHAR nu
ENCODING 957
SWIDTH 548 0
DWIDTH 8 0
BBX 8 15 0 -3
BITMAP
00
00
00
00
00
63
33
1B
1A
0E
0C
0C
00
00
00
ENDCHAR

STARTCHAR xi
ENCODING 958
SWIDTH 548 0
DWIDTH 8 0
BBX 8 15 0 -3
BITMAP
00
00
63
3E
18
30
30
1E
30
60
60
3E
03
03
0E
ENDCHAR

STARTCHAR omicron
ENCODING 959
SWIDTH 548 0
DWIDTH 8 0
BBX 8 15 0 -3
BITMAP
00
00
00
00
00
1E
33
63
63
63
66
3C
00
00
00
ENDCHAR

STARTCHAR pi
ENCODING 960
SWIDTH 548 0
DWIDTH 8 0
BBX 8 15 0 -3
BITMAP
00
00
00
00
00
3F
76
36
36
36
36
36
00
00
00
ENDCHAR

STARTCHAR rho
ENCODING 961
SWIDTH 548 0
DWIDTH 8 0
BBX 8 15 0 -3
BITMAP
00
00
00
00
00
0E
1B
33
63
63
66
7C
60
60
60
ENDCHAR

STARTCHAR sigmafinal
ENCODING 962
SWIDTH 548 0
DWIDTH 8 0
BBX 8 15 0 -3
BITMAP
00
00
00
00
00
1E
33
60
60
60
60
3E
03
03
0E
ENDCHAR

STARTCHAR sigma
ENCODING 963
SWIDTH 548 0
DWIDTH 8 0
BBX 8 15 0 -3
BITMAP
00
00
00
00
00
1F
3C
67
63
63
63
3E
00
00
00
ENDCHAR

STARTCHAR tau
ENCODING 964
SWIDTH 548 0
DWIDTH 8 0
BBX 8 15 0 -3
BITMAP
00
00
00
00
00
7F
18
18
30
30
36
1C
00
00
00
ENDCHAR

STARTCHAR upsilon
ENCODING 965
SWIDTH 548 0
DWIDTH 8 0
BBX 8 15 0 -3
BITMAP
00
00
00
00
00
66
63
63
63
63
66
3C
00
00
00
ENDCHAR

STARTCHAR phi
ENCODING 966
SWIDTH 548 0
DWIDTH 8 0
BBX 8 15 0 -3
BITMAP
00
00
00
00
00
26
6F
6B
6B
6B
6E
3C
18
18
18
ENDCHAR

STARTCHAR chi
ENCODING 967
SWIDTH 548 0
DWIDTH 8 0
BBX 8 15 0 -3
BITMAP
00
00
00
00
00
73
1B
1B
1B
1E
3C
6C
6C
6C
67
ENDCHAR

STARTCHAR psi
ENCODING 968
SWIDTH 548 0
DWIDTH 8 0
BBX 8 15 0 -3
BITMAP
00
00
00
00
00
0B
6B
6B
6B
6B
6E
3C
18
18
18
ENDCHAR

STARTCHAR omega
ENCODING 969
SWIDTH 548 0
DWIDTH 8 0
BBX 8 15 0 -3
BITMAP
00
00
00
00
00
36
63
6B
6B
6B
6B
36
00
00
00
ENDCHAR

STARTCHAR iotadieresis
ENCODING 970
SWIDTH 548 0
DWIDTH 8 0
BBX 8 15 0 -3
BITMAP
00
00
66
66
00
30
30
30
30
30
36
1C
00
00
00
ENDCHAR

STARTCHAR upsilondieresis
ENCODING 971
SWIDTH 548 0
DWIDTH 8 0
BBX 8 15 0 -3
BITMAP
00
00
66
66
00
66
63
63
63
63
66
3C
00
00
00
ENDCHAR

STARTCHAR omicrontonos
ENCODING 972
SWIDTH 548 0
DWIDTH 8 0
BBX 8 15 0 -3
BITMAP
00
0C
18
30
00
1E
33
63
63
63
66
3C
00
00
00
ENDCHAR

STARTCHAR upsilontonos
ENCODING 973
SWIDTH 548 0
DWIDTH 8 0
BBX 8 15 0 -3
BITMAP
00
0C
18
30
00
66
63
63
63
63
66
3C
00
00
00
ENDCHAR

STARTCHAR omegatonos
ENCODING 974
SWIDTH 548 0
DWIDTH 8 0
BBX 8 15 0 -3
BITMAP
00
0C
18
30
00
36
63
6B
6B
6B
6B
36
00
00
00
ENDCHAR

STARTCHAR phisymbolgreek
ENCODING 981
SWIDTH 548 0
DWIDTH 8 0
BBX 8 15 0 -3
BITMAP
00
00
18
18
18
1E
3F
6B
6B
6B
6E
3C
18
18
18
ENDCHAR

STARTCHAR pisymbolgreek
ENCODING 982
SWIDTH 548 0
DWIDTH 8 0
BBX 8 15 0 -3
BITMAP
00
00
00
00
00
7F
36
6B
6B
6B
6B
36
00
00
00
ENDCHAR

STARTCHAR hyphentwo
ENCODING 8208
SWIDTH 548 0
DWIDTH 8 0
BBX 8 15 0 -3
BITMAP
00
00
00
00
00
00
00
3E
00
00
00
00
00
00
00
ENDCHAR

STARTCHAR endash
ENCODING 8211
SWIDTH 548 0
DWIDTH 8 0
BBX 8 15 0 -3
BITMAP
00
00
00
00
00
00
00
7E
00
00
00
00
00
00
00
ENDCHAR

STARTCHAR emdash
ENCODING 8212
SWIDTH 548 0
DWIDTH 8 0
BBX 8 15 0 -3
BITMAP
00
00
00
00
00
00
00
7F
00
00
00
00
00
00
00
ENDCHAR

STARTCHAR quoteleft
ENCODING 8216
SWIDTH 548 0
DWIDTH 8 0
BBX 8 15 0 -3
BITMAP
00
0C
18
38
38
00
00
00
00
00
00
00
00
00
00
ENDCHAR

STARTCHAR quoteright
ENCODING 8217
SWIDTH 548 0
DWIDTH 8 0
BBX 8 15 0 -3
BITMAP
00
1C
1C
18
30
00
00
00
00
00
00
00
00
00
00
ENDCHAR

STARTCHAR quotesinglbase
ENCODING 8218
SWIDTH 548 0
DWIDTH 8 0
BBX 8 15 0 -3
BITMAP
00
00
00
00
00
00
00
00
00
00
1C
1C
18
30
00
ENDCHAR

STARTCHAR quotedblleft
ENCODING 8220
SWIDTH 548 0
DWIDTH 8 0
BBX 8 15 0 -3
BITMAP
00
1B
36
7E
7E
00
00
00
00
00
00
00
00
00
00
ENDCHAR

STARTCHAR quotedblright
ENCODING 8221
SWIDTH 548 0
DWIDTH 8 0
BBX 8 15 0 -3
BITMAP
00
3F
3F
36
6C
00
00
00
00
00
00
00
00
00
00
ENDCHAR

STARTCHAR quotedblbase
ENCODING 8222
SWIDTH 548 0
DWIDTH 8 0
BBX 8 15 0 -3
BITMAP
00
00
00
00
00
00
00
00
00
00
3F
3F
36
6C
00
ENDCHAR

STARTCHAR dagger
ENCODING 8224
SWIDTH 548 0
DWIDTH 8 0
BBX 8 15 0 -3
BITMAP
00
0C
1E
0C
2D
3F
2D
0C
0C
0C
0C
0C
08
08
00
ENDCHAR

STARTCHAR daggerdbl
ENCODING 8225
SWIDTH 548 0
DWIDTH 8 0
BBX 8 15 0 -3
BITMAP
00
0C
1E
0C
2D
3F
2D
0C
2D
3F
2D
0C
1E
0C
00
ENDCHAR

STARTCHAR bullet
ENCODING 8226
SWIDTH 548 0
DWIDTH 8 0
BBX 8 15 0 -3
BITMAP
00
00
00
00
00
38
7C
7C
7C
38
00
00
00
00
00
ENDCHAR

STARTCHAR ellipsis
ENCODING 8230
SWIDTH 548 0
DWIDTH 8 0
BBX 8 15 0 -3
BITMAP
00
00
00
00
00
00
00
00
00
00
6D
5B
00
00
00
ENDCHAR

STARTCHAR perthousand
ENCODING 8240
SWIDTH 548 0
DWIDTH 8 0
BBX 8 15 0 -3
BITMAP
00
30
69
5B
36
0C
18
30
60
DA
AD
2D
16
00
00
ENDCHAR

STARTCHAR guilsinglleft
ENCODING 8249
SWIDTH 548 0
DWIDTH 8 0
BBX 8 15 0 -3
BITMAP
00
00
00
00
06
0C
18
30
30
18
0C
00
00
00
00
ENDCHAR

STARTCHAR guilsinglright
ENCODING 8250
SWIDTH 548 0
DWIDTH 8 0
BBX 8 15 0 -3
BITMAP
00
00
00
00
00
30
18
0C
0C
18
30
60
00
00
00
ENDCHAR

STARTCHAR zerosuperior
ENCODING 8304
SWIDTH 548 0
DWIDTH 8 0
BBX 8 15 0 -3
BITMAP
00
00
1C
36
6E
76
6C
38
00
00
00
00
00
00
00
ENDCHAR

STARTCHAR uni2071
ENCODING 8305
SWIDTH 548 0
DWIDTH 8 0
BBX 8 15 0 -3
BITMAP
00
00
18
00
18
18
18
00
00
00
00
00
00
00
00
ENDCHAR

STARTCHAR foursuperior
ENCODING 8308
SWIDTH 548 0
DWIDTH 8 0
BBX 8 15 0 -3
BITMAP
00
00
0C
1C
3C
6C
7E
0C
00
00
00
00
00
00
00
ENDCHAR

STARTCHAR fivesuperior
ENCODING 8309
SWIDTH 548 0
DWIDTH 8 0
BBX 8 15 0 -3
BITMAP
00
00
7E
60
7C
06
66
3C
00
00
00
00
00
00
00
ENDCHAR

STARTCHAR sixsuperior
ENCODING 8310
SWIDTH 548 0
DWIDTH 8 0
BBX 8 15 0 -3
BITMAP
00
00
3C
60
7C
66
66
3C
00
00
00
00
00
00
00
ENDCHAR

STARTCHAR sevensuperior
ENCODING 8311
SWIDTH 548 0
DWIDTH 8 0
BBX 8 15 0 -3
BITMAP
00
00
7E
66
0C
18
18
18
00
00
00
00
00
00
00
ENDCHAR

STARTCHAR eightsuperior
ENCODING 8312
SWIDTH 548 0
DWIDTH 8 0
BBX 8 15 0 -3
BITMAP
00
00
3C
66
3C
66
66
3C
00
00
00
00
00
00
00
ENDCHAR

STARTCHAR ninesuperior
ENCODING 8313
SWIDTH 548 0
DWIDTH 8 0
BBX 8 15 0 -3
BITMAP
00
00
3C
66
66
3E
06
3C
00
00
00
00
00
00
00
ENDCHAR

STARTCHAR plussuperior
ENCODING 8314
SWIDTH 548 0
DWIDTH 8 0
BBX 8 15 0 -3
BITMAP
00
00
00
18
18
7E
18
18
00
00
00
00
00
00
00
ENDCHAR

STARTCHAR uni207B
ENCODING 8315
SWIDTH 548 0
DWIDTH 8 0
BBX 8 15 0 -3
BITMAP
00
00
00
00
00
7E
00
00
00
00
00
00
00
00
00
ENDCHAR

STARTCHAR equalsuperior
ENCODING 8316
SWIDTH 548 0
DWIDTH 8 0
BBX 8 15 0 -3
BITMAP
00
00
00
00
7E
00
7E
00
00
00
00
00
00
00
00
ENDCHAR

STARTCHAR parenleftsuperior
ENCODING 8317
SWIDTH 548 0
DWIDTH 8 0
BBX 8 15 0 -3
BITMAP
00
00
0C
18
18
18
18
0C
00
00
00
00
00
00
00
ENDCHAR

STARTCHAR parenrightsuperior
ENCODING 8318
SWIDTH 548 0
DWIDTH 8 0
BBX 8 15 0 -3
BITMAP
00
00
30
18
18
18
18
30
00
00
00
00
00
00
00
ENDCHAR

STARTCHAR nsuperior
ENCODING 8319
SWIDTH 548 0
DWIDTH 8 0
BBX 8 15 0 -3
BITMAP
00
00
00
6C
7E
76
66
66
00
00
00
00
00
00
00
ENDCHAR

STARTCHAR zeroinferior
ENCODING 8320
SWIDTH 548 0
DWIDTH 8 0
BBX 8 15 0 -3
BITMAP
00
00
00
00
00
00
00
00
1C
36
6E
76
6C
38
00
ENDCHAR

STARTCHAR oneinferior
ENCODING 8321
SWIDTH 548 0
DWIDTH 8 0
BBX 8 15 0 -3
BITMAP
00
00
00
00
00
00
00
00
18
38
18
18
18
18
00
ENDCHAR

STARTCHAR twoinferior
ENCODING 8322
SWIDTH 548 0
DWIDTH 8 0
BBX 8 15 0 -3
BITMAP
00
00
00
00
00
00
00
00
3C
66
0C
18
32
7E
00
ENDCHAR

STARTCHAR threeinferior
ENCODING 8323
SWIDTH 548 0
DWIDTH 8 0
BBX 8 15 0 -3
BITMAP
00
00
00
00
00
00
00
00
7E
06
1C
06
66
3C
00
ENDCHAR

STARTCHAR fourinferior
ENCODING 8324
SWIDTH 548 0
DWIDTH 8 0
BBX 8 15 0 -3
BITMAP
00
00
00
00
00
00
00
00
0C
1C
3C
6C
7E
0C
00
ENDCHAR

STARTCHAR fiveinferior
ENCODING 8325
SWIDTH 548 0
DWIDTH 8 0
BBX 8 15 0 -3
BITMAP
00
00
00
00
00
00
00
00
7E
60
7C
06
66
3C
00
ENDCHAR

STARTCHAR sixinferior
ENCODING 8326
SWIDTH 548 0
DWIDTH 8 0
BBX 8 15 0 -3
BITMAP
00
00
00
00
00
00
00
00
3C
60
7C
66
66
3C
00
ENDCHAR

STARTCHAR seveninferior
ENCODING 8327
SWIDTH 548 0
DWIDTH 8 0
BBX 8 15 0 -3
BITMAP
00
00
00
00
00
00
00
00
7E
66
0C
18
18
18
00
ENDCHAR

STARTCHAR eightinferior
ENCODING 8328
SWIDTH 548 0
DWIDTH 8 0
BBX 8 15 0 -3
BITMAP
00
00
00
00
00
00
00
00
3C
66
3C
66
66
3C
00
ENDCHAR

STARTCHAR nineinferior
ENCODING 8329
SWIDTH 548 0
DWIDTH 8 0
BBX 8 15 0 -3
BITMAP
00
00
00
00
00
00
00
00
3C
66
66
3E
06
3C
00
ENDCHAR

STARTCHAR uni208A
ENCODING 8330
SWIDTH 548 0
DWIDTH 8 0
BBX 8 15 0 -3
BITMAP
00
00
00
00
00
00
00
00
00
18
18
7E
18
18
00
ENDCHAR

STARTCHAR uni208B
ENCODING 8331
SWIDTH 548 0
DWIDTH 8 0
BBX 8 15 0 -3
BITMAP
00
00
00
00
00
00
00
00
00
00
00
7E
00
00
00
ENDCHAR

STARTCHAR uni208C
ENCODING 8332
SWIDTH 548 0
DWIDTH 8 0
BBX 8 15 0 -3
BITMAP
00
00
00
00
00
00
00
00
00
00
7E
00
7E
00
00
ENDCHAR

STARTCHAR parenleftinferior
ENCODING 8333
SWIDTH 548 0
DWIDTH 8 0
BBX 8 15 0 -3
BITMAP
00
00
00
00
00
00
00
00
0C
18
18
18
18
0C
00
ENDCHAR

STARTCHAR parenrightinferior
ENCODING 8334
SWIDTH 548 0
DWIDTH 8 0
BBX 8 15 0 -3
BITMAP
00
00
00
00
00
00
00
00
30
18
18
18
18
30
00
ENDCHAR

STARTCHAR uni2090
ENCODING 8336
SWIDTH 548 0
DWIDTH 8 0
BBX 8 15 0 -3
BITMAP
00
00
00
00
00
00
00
00
00
3C
06
3E
66
3E
00
ENDCHAR

STARTCHAR uni2091
ENCODING 8337
SWIDTH 548 0
DWIDTH 8 0
BBX 8 15 0 -3
BITMAP
00
00
00
00
00
00
00
00
00
3C
66
7C
60
3C
00
ENDCHAR

STARTCHAR uni2092
ENCODING 8338
SWIDTH 548 0
DWIDTH 8 0
BBX 8 15 0 -3
BITMAP
00
00
00
00
00
00
00
00
00
3C
66
66
66
3C
00
ENDCHAR

STARTCHAR uni2093
ENCODING 8339
SWIDTH 548 0
DWIDTH 8 0
BBX 8 15 0 -3
BITMAP
00
00
00
00
00
00
00
00
00
66
3C
18
3C
66
00
ENDCHAR

STARTCHAR uni2094
ENCODING 8340
SWIDTH 548 0
DWIDTH 8 0
BBX 8 15 0 -3
BITMAP
00
00
00
00
00
00
00
00
00
3C
06
7E
66
3C
00
ENDCHAR

STARTCHAR uni2095
ENCODING 8341
SWIDTH 548 0
DWIDTH 8 0
BBX 8 15 0 -3
BITMAP
00
00
00
00
00
00
00
60
60
6C
7E
76
66
66
00
ENDCHAR

STARTCHAR uni2096
ENCODING 8342
SWIDTH 548 0
DWIDTH 8 0
BBX 8 15 0 -3
BITMAP
00
00
00
00
00
00
00
60
60
66
6C
78
7C
66
00
ENDCHAR

STARTCHAR uni2097
ENCODING 8343
SWIDTH 548 0
DWIDTH 8 0
BBX 8 15 0 -3
BITMAP
00
00
00
00
00
00
00
38
18
18
18
18
18
18
00
ENDCHAR

STARTCHAR uni2098
ENCODING 8344
SWIDTH 548 0
DWIDTH 8 0
BBX 8 15 0 -3
BITMAP
00
00
00
00
00
00
00
00
00
76
7F
6B
6B
63
00
ENDCHAR

STARTCHAR uni2099
ENCODING 8345
SWIDTH 548 0
DWIDTH 8 0
BBX 8 15 0 -3
BITMAP
00
00
00
00
00
00
00
00
00
6C
7E
76
66
66
00
ENDCHAR

STARTCHAR uni209A
ENCODING 8346
SWIDTH 548 0
DWIDTH 8 0
BBX 8 15 0 -3
BITMAP
00
00
00
00
00
00
00
00
00
6C
7E
76
6E
7C
60
ENDCHAR

STARTCHAR uni209B
ENCODING 8347
SWIDTH 548 0
DWIDTH 8 0
BBX 8 15 0 -3
BITMAP
00
00
00
00
00
00
00
00
00
3C
60
3C
06
3C
00
ENDCHAR

STARTCHAR uni209C
ENCODING 8348
SWIDTH 548 0
DWIDTH 8 0
BBX 8 15 0 -3
BITMAP
00
00
00
00
00
00
00
10
30
7C
30
30
3C
18
00
ENDCHAR

STARTCHAR peseta
ENCODING 8359
SWIDTH 548 0
DWIDTH 8 0
BBX 8 15 0 -3
BITMAP
00
00
30
78
68
68
7B
6E
6E
6B
6F
66
00
00
00
ENDCHAR

STARTCHAR Euro
ENCODING 8364
SWIDTH 548 0
DWIDTH 8 0
BBX 8 15 0 -3
BITMAP
00
00
0E
1B
30
7E
30
7E
30
30
1B
0E
00
00
00
ENDCHAR

STARTCHAR trademark
ENCODING 8482
SWIDTH 548 0
DWIDTH 8 0
BBX 8 15 0 -3
BITMAP
00
79
2F
2F
29
29
00
00
00
00
00
00
00
00
00
ENDCHAR

STARTCHAR bulletoperator
ENCODING 8729
SWIDTH 548 0
DWIDTH 8 0
BBX 8 15 0 -3
BITMAP
00
00
00
00
00
00
18
3C
3C
18
00
00
00
00
00
ENDCHAR

STARTCHAR radical
ENCODING 8730
SWIDTH 548 0
DWIDTH 8 0
BBX 8 15 0 -3
BITMAP
00
00
03
03
03
06
06
06
6C
3C
1C
0C
00
00
00
ENDCHAR

STARTCHAR infinity
ENCODING 8734
SWIDTH 548 0
DWIDTH 8 0
BBX 8 15 0 -3
BITMAP
00
00
00
00
00
00
36
7F
49
7F
36
00
00
00
00
ENDCHAR

STARTCHAR intersection
ENCODING 8745
SWIDTH 548 0
DWIDTH 8 0
BBX 8 15 0 -3
BITMAP
00
00
00
00
00
00
3C
66
66
66
66
00
00
00
00
ENDCHAR

STARTCHAR union
ENCODING 8746
SWIDTH 548 0
DWIDTH 8 0
BBX 8 15 0 -3
BITMAP
00
00
00
00
00
00
66
66
66
66
3C
00
00
00
00
ENDCHAR

STARTCHAR approxequal
ENCODING 8776
SWIDTH 548 0
DWIDTH 8 0
BBX 8 15 0 -3
BITMAP
00
00
00
00
00
00
3B
6E
00
3B
6E
00
00
00
00
ENDCHAR

STARTCHAR notequal
ENCODING 8800
SWIDTH 548 0
DWIDTH 8 0
BBX 8 15 0 -3
BITMAP
00
00
00
06
0C
7F
0C
18
7F
18
30
00
00
00
00
ENDCHAR

STARTCHAR equivalence
ENCODING 8801
SWIDTH 548 0
DWIDTH 8 0
BBX 8 15 0 -3
BITMAP
00
00
00
00
00
7F
00
7F
00
7F
00
00
00
00
00
ENDCHAR

STARTCHAR lessequal
ENCODING 8804
SWIDTH 548 0
DWIDTH 8 0
BBX 8 15 0 -3
BITMAP
00
00
00
0C
18
30
60
30
18
0C
00
7E
00
00
00
ENDCHAR

STARTCHAR greaterequal
ENCODING 8805
SWIDTH 548 0
DWIDTH 8 0
BBX 8 15 0 -3
BITMAP
00
00
00
30
18
0C
06
0C
18
30
00
7E
00
00
00
ENDCHAR

STARTCHAR logicalnotreversed
ENCODING 8976
SWIDTH 548 0
DWIDTH 8 0
BBX 8 15 0 -3
BITMAP
00
00
00
00
00
00
7F
60
60
60
00
00
00
00
00
ENDCHAR

STARTCHAR integraltop
ENCODING 8992
SWIDTH 548 0
DWIDTH 8 0
BBX 8 15 0 -3
BITMAP
00
00
0C
1E
1A
1A
18
18
18
18
18
18
18
18
18
ENDCHAR

STARTCHAR integralbottom
ENCODING 8993
SWIDTH 548 0
DWIDTH 8 0
BBX 8 15 0 -3
BITMAP
18
18
18
18
18
18
18
18
58
58
78
30
00
00
00
ENDCHAR

STARTCHAR uni23BA
ENCODING 9146
SWIDTH 548 0
DWIDTH 8 0
BBX 8 15 0 -3
BITMAP
00
00
FF
00
00
00
00
00
00
00
00
00
00
00
00
ENDCHAR

STARTCHAR uni23BB
ENCODING 9147
SWIDTH 548 0
DWIDTH 8 0
BBX 8 15 0 -3
BITMAP
00
00
00
00
00
FF
00
00
00
00
00
00
00
00
00
ENDCHAR

STARTCHAR uni23BC
ENCODING 9148
SWIDTH 548 0
DWIDTH 8 0
BBX 8 15 0 -3
BITMAP
00
00
00
00
00
00
00
00
00
00
00
FF
00
00
00
ENDCHAR

STARTCHAR uni23BD
ENCODING 9149
SWIDTH 548 0
DWIDTH 8 0
BBX 8 15 0 -3
BITMAP
00
00
00
00
00
00
00
00
00
00
00
00
00
00
FF
ENDCHAR

STARTCHAR uni2409
ENCODING 9225
SWIDTH 548 0
DWIDTH 8 0
BBX 8 15 0 -3
BITMAP
00
00
6C
6C
7C
6C
6C
00
0F
06
06
06
00
00
00
ENDCHAR

STARTCHAR uni240A
ENCODING 9226
SWIDTH 548 0
DWIDTH 8 0
BBX 8 15 0 -3
BITMAP
00
00
60
60
60
78
00
1F
18
1E
18
18
00
00
00
ENDCHAR

STARTCHAR uni240B
ENCODING 9227
SWIDTH 548 0
DWIDTH 8 0
BBX 8 15 0 -3
BITMAP
00
00
6C
6C
38
38
10
00
3F
0C
0C
0C
00
00
00
ENDCHAR

STARTCHAR uni240C
ENCODING 9228
SWIDTH 548 0
DWIDTH 8 0
BBX 8 15 0 -3
BITMAP
00
00
7C
60
78
60
60
1F
18
1E
18
18
00
00
00
ENDCHAR

STARTCHAR uni240D
ENCODING 9229
SWIDTH 548 0
DWIDTH 8 0
BBX 8 15 0 -3
BITMAP
00
00
3C
60
60
3C
00
1E
1B
1E
1B
1B
00
00
00
ENDCHAR

STARTCHAR uni2424
ENCODING 9252
SWIDTH 548 0
DWIDTH 8 0
BBX 8 15 0 -3
BITMAP
00
00
66
76
7E
6E
66
00
18
18
18
1F
00
00
00
ENDCHAR

STARTCHAR SF100000
ENCODING 9472
SWIDTH 548 0
DWIDTH 8 0
BBX 8 15 0 -3
BITMAP
00
00
00
00
00
00
00
00
FF
00
00
00
00
00
00
ENDCHAR

STARTCHAR uni2501
ENCODING 9473
SWIDTH 548 0
DWIDTH 8 0
BBX 8 15 0 -3
BITMAP
00
00
00
00
00
00
00
FF
FF
FF
00
00
00
00
00
ENDCHAR

STARTCHAR SF110000
ENCODING 9474
SWIDTH 548 0
DWIDTH 8 0
BBX 8 15 0 -3
BITMAP
18
18
18
18
18
18
18
18
18
18
18
18
18
18
18
ENDCHAR

STARTCHAR uni2503
ENCODING 9475
SWIDTH 548 0
DWIDTH 8 0
BBX 8 15 0 -3
BITMAP
3C
3C
3C
3C
3C
3C
3C
3C
3C
3C
3C
3C
3C
3C
3C
ENDCHAR

STARTCHAR uni2504
ENCODING 9476
SWIDTH 548 0
DWIDTH 8 0
BBX 8 15 0 -3
BITMAP
00
00
00
00
00
00
00
00
6B
00
00
00
00
00
00
ENDCHAR

STARTCHAR uni2505
ENCODING 9477
SWIDTH 548 0
DWIDTH 8 0
BBX 8 15 0 -3
BITMAP
00
00
00
00
00
00
00
6B
6B
6B
00
00
00
00
00
ENDCHAR

STARTCHAR uni2506
ENCODING 9478
SWIDTH 548 0
DWIDTH 8 0
BBX 8 15 0 -3
BITMAP
18
18
18
18
00
18
18
18
18
00
18
18
18
18
00
ENDCHAR

STARTCHAR uni2507
ENCODING 9479
SWIDTH 548 0
DWIDTH 8 0
BBX 8 15 0 -3
BITMAP
3C
3C
3C
3C
00
3C
3C
3C
3C
00
3C
3C
3C
3C
00
ENDCHAR

STARTCHAR uni2508
ENCODING 9480
SWIDTH 548 0
DWIDTH 8 0
BBX 8 15 0 -3
BITMAP
00
00
00
00
00
00
00
00
55
00
00
00
00
00
00
ENDCHAR

STARTCHAR uni2509
ENCODING 9481
SWIDTH 548 0
DWIDTH 8 0
BBX 8 15 0 -3
BITMAP
00
00
00
00
00
00
00
55
55
55
00
00
00
00
00
ENDCHAR

STARTCHAR uni250A
ENCODING 9482
SWIDTH 548 0
DWIDTH 8 0
BBX 8 15 0 -3
BITMAP
18
18
18
00
18
18
18
00
18
18
18
00
18
18
00
ENDCHAR

STARTCHAR uni250B
ENCODING 9483
SWIDTH 548 0
DWIDTH 8 0
BBX 8 15 0 -3
BITMAP
3C
3C
3C
00
3C
3C
3C
00
3C
3C
3C
00
3C
3C
00
ENDCHAR

STARTCHAR SF010000
ENCODING 9484
SWIDTH 548 0
DWIDTH 8 0
BBX 8 15 0 -3
BITMAP
00
00
00
00
00
00
00
00
1F
18
18
18
18
18
18
ENDCHAR

STARTCHAR uni250D
ENCODING 9485
SWIDTH 548 0
DWIDTH 8 0
BBX 8 15 0 -3
BITMAP
00
00
00
00
00
00
00
1F
1F
1F
18
18
18
18
18
ENDCHAR

STARTCHAR uni250E
ENCODING 9486
SWIDTH 548 0
DWIDTH 8 0
BBX 8 15 0 -3
BITMAP
00
00
00
00
00
00
00
00
3F
3C
3C
3C
3C
3C
3C
ENDCHAR

STARTCHAR uni250F
ENCODING 9487
SWIDTH 548 0
DWIDTH 8 0
BBX 8 15 0 -3
BITMAP
00
00
00
00
00
00
00
3F
3F
3F
3C
3C
3C
3C
3C
ENDCHAR

STARTCHAR SF030000
ENCODING 9488
SWIDTH 548 0
DWIDTH 8 0
BBX 8 15 0 -3
BITMAP
00
00
00
00
00
00
00
00
F8
18
18
18
18
18
18
ENDCHAR

STARTCHAR uni2511
ENCODING 9489
SWIDTH 548 0
DWIDTH 8 0
BBX 8 15 0 -3
BITMAP
00
00
00
00
00
00
00
F8
F8
F8
18
18
18
18
18
ENDCHAR

STARTCHAR uni2512
ENCODING 9490
SWIDTH 548 0
DWIDTH 8 0
BBX 8 15 0 -3
BITMAP
00
00
00
00
00
00
00
00
FC
3C
3C
3C
3C
3C
3C
ENDCHAR

STARTCHAR uni2513
ENCODING 9491
SWIDTH 548 0
DWIDTH 8 0
BBX 8 15 0 -3
BITMAP
00
00
00
00
00
00
00
FC
FC
FC
3C
3C
3C
3C
3C
ENDCHAR

STARTCHAR SF020000
ENCODING 9492
SWIDTH 548 0
DWIDTH 8 0
BBX 8 15 0 -3
BITMAP
18
18
18
18
18
18
18
18
1F
00
00
00
00
00
00
ENDCHAR

STARTCHAR uni2515
ENCODING 9493
SWIDTH 548 0
DWIDTH 8 0
BBX 8 15 0 -3
BITMAP
18
18
18
18
18
18
18
1F
1F
1F
00
00
00
00
00
ENDCHAR

STARTCHAR uni2516
ENCODING 9494
SWIDTH 548 0
DWIDTH 8 0
BBX 8 15 0 -3
BITMAP
3C
3C
3C
3C
3C
3C
3C
3C
3F
00
00
00
00
00
00
ENDCHAR

STARTCHAR uni2517
ENCODING 9495
SWIDTH 548 0
DWIDTH 8 0
BBX 8 15 0 -3
BITMAP
3C
3C
3C
3C
3C
3C
3C
3F
3F
3F
00
00
00
00
00
ENDCHAR

STARTCHAR SF040000
ENCODING 9496
SWIDTH 548 0
DWIDTH 8 0
BBX 8 15 0 -3
BITMAP
18
18
18
18
18
18
18
18
F8
00
00
00
00
00
00
ENDCHAR

STARTCHAR uni2519
ENCODING 9497
SWIDTH 548 0
DWIDTH 8 0
BBX 8 15 0 -3
BITMAP
18
18
18
18
18
18
18
F8
F8
F8
00
00
00
00
00
ENDCHAR

STARTCHAR uni251A
ENCODING 9498
SWIDTH 548 0
DWIDTH 8 0
BBX 8 15 0 -3
BITMAP
3C
3C
3C
3C
3C
3C
3C
3C
FC
00
00
00
00
00
00
ENDCHAR

STARTCHAR uni251B
ENCODING 9499
SWIDTH 548 0
DWIDTH 8 0
BBX 8 15 0 -3
BITMAP
3C
3C
3C
3C
3C
3C
3C
FC
FC
FC
00
00
00
00
00
ENDCHAR

STARTCHAR SF080000
ENCODING 9500
SWIDTH 548 0
DWIDTH 8 0
BBX 8 15 0 -3
BITMAP
18
18
18
18
18
18
18
18
1F
18
18
18
18
18
18
ENDCHAR

STARTCHAR uni251D
ENCODING 9501
SWIDTH 548 0
DWIDTH 8 0
BBX 8 15 0 -3
BITMAP
18
18
18
18
18
18
18
1F
1F
1F
18
18
18
18
18
ENDCHAR

STARTCHAR uni251E
ENCODING 9502
SWIDTH 548 0
DWIDTH 8 0
BBX 8 15 0 -3
BITMAP
3C
3C
3C
3C
3C
3C
3C
3C
3F
18
18
18
18
18
18
ENDCHAR

STARTCHAR uni251F
ENCODING 9503
SWIDTH 548 0
DWIDTH 8 0
BBX 8 15 0 -3
BITMAP
18
18
18
18
18
18
18
18
3F
3C
3C
3C
3C
3C
3C
ENDCHAR

STARTCHAR uni2520
ENCODING 9504
SWIDTH 548 0
DWIDTH 8 0
BBX 8 15 0 -3
BITMAP
3C
3C
3C
3C
3C
3C
3C
3C
3F
3C
3C
3C
3C
3C
3C
ENDCHAR

STARTCHAR uni2521
ENCODING 9505
SWIDTH 548 0
DWIDTH 8 0
BBX 8 15 0 -3
BITMAP
3C
3C
3C
3C
3C
3C
3C
3F
3F
3F
18
18
18
18
18
ENDCHAR

STARTCHAR uni2522
ENCODING 9506
SWIDTH 548 0
DWIDTH 8 0
BBX 8 15 0 -3
BITMAP
18
18
18
18
18
18
18
3F
3F
3F
3C
3C
3C
3C
3C
ENDCHAR

STARTCHAR uni2523
ENCODING 9507
SWIDTH 548 0
DWIDTH 8 0
BBX 8 15 0 -3
BITMAP
3C
3C
3C
3C
3C
3C
3C
3F
3F
3F
3C
3C
3C
3C
3C
ENDCHAR

STARTCHAR SF090000
ENCODING 9508
SWIDTH 548 0
DWIDTH 8 0
BBX 8 15 0 -3
BITMAP
18
18
18
18
18
18
18
18
F8
18
18
18
18
18
18
ENDCHAR

STARTCHAR uni2525
ENCODING 9509
SWIDTH 548 0
DWIDTH 8 0
BBX 8 15 0 -3
BITMAP
18
18
18
18
18
18
18
F8
F8
F8
18
18
18
18
18
ENDCHAR

STARTCHAR uni2526
ENCODING 9510
SWIDTH 548 0
DWIDTH 8 0
BBX 8 15 0 -3
BITMAP
3C
3C
3C
3C
3C
3C
3C
3C
FC
18
18
18
18
18
18
ENDCHAR

STARTCHAR uni2527
ENCODING 9511
SWIDTH 548 0
DWIDTH 8 0
BBX 8 15 0 -3
BITMAP
18
18
18
18
18
18
18
18
FC
3C
3C
3C
3C
3C
3C
ENDCHAR

STARTCHAR uni2528
ENCODING 9512
SWIDTH 548 0
DWIDTH 8 0
BBX 8 15 0 -3
BITMAP
3C
3C
3C
3C
3C
3C
3C
3C
FC
3C
3C
3C
3C
3C
3C
ENDCHAR

STARTCHAR uni2529
ENCODING 9513
SWIDTH 548 0
DWIDTH 8 0
BBX 8 15 0 -3
BITMAP
3C
3C
3C
3C
3C
3C
3C
FC
FC
FC
18
18
18
18
18
ENDCHAR

STARTCHAR uni252A
ENCODING 9514
SWIDTH 548 0
DWIDTH 8 0
BBX 8 15 0 -3
BITMAP
18
18
18
18
18
18
18
FC
FC
FC
3C
3C
3C
3C
3C
ENDCHAR

STARTCHAR uni252B
ENCODING 9515
SWIDTH 548 0
DWIDTH 8 0
BBX 8 15 0 -3
BITMAP
3C
3C
3C
3C
3C
3C
3C
FC
FC
FC
3C
3C
3C
3C
3C
ENDCHAR

STARTCHAR SF060000
ENCODING 9516
SWIDTH 548 0
DWIDTH 8 0
BBX 8 15 0 -3
BITMAP
00
00
00
00
00
00
00
00
FF
18
18
18
18
18
18
ENDCHAR

STARTCHAR uni252D
ENCODING 9517
SWIDTH 548 0
DWIDTH 8 0
BBX 8 15 0 -3
BITMAP
00
00
00
00
00
00
00
F8
FF
F8
18
18
18
18
18
ENDCHAR

STARTCHAR uni252E
ENCODING 9518
SWIDTH 548 0
DWIDTH 8 0
BBX 8 15 0 -3
BITMAP
00
00
00
00
00
00
00
1F
FF
1F
18
18
18
18
18
ENDCHAR

STARTCHAR uni252F
ENCODING 9519
SWIDTH 548 0
DWIDTH 8 0
BBX 8 15 0 -3
BITMAP
00
00
00
00
00
00
00
FF
FF
FF
18
18
18
18
18
ENDCHAR

STARTCHAR uni2530
ENCODING 9520
SWIDTH 548 0
DWIDTH 8 0
BBX 8 15 0 -3
BITMAP
00
00
00
00
00
00
00
00
FF
3C
3C
3C
3C
3C
3C
ENDCHAR

STARTCHAR uni2531
ENCODING 9521
SWIDTH 548 0
DWIDTH 8 0
BBX 8 15 0 -3
BITMAP
00
00
00
00
00
00
00
FC
FF
FC
3C
3C
3C
3C
3C
ENDCHAR

STARTCHAR uni2532
ENCODING 9522
SWIDTH 548 0
DWIDTH 8 0
BBX 8 15 0 -3
BITMAP
00
00
00
00
00
00
00
3F
FF
3F
3C
3C
3C
3C
3C
ENDCHAR

STARTCHAR uni2533
ENCODING 9523
SWIDTH 548 0
DWIDTH 8 0
BBX 8 15 0 -3
BITMAP
00
00
00
00
00
00
00
FF
FF
FF
3C
3C
3C
3C
3C
ENDCHAR

STARTCHAR SF070000
ENCODING 9524
SWIDTH 548 0
DWIDTH 8 0
BBX 8 15 0 -3
BITMAP
18
18
18
18
18
18
18
18
FF
00
00
00
00
00
00
ENDCHAR

STARTCHAR uni2535
ENCODING 9525
SWIDTH 548 0
DWIDTH 8 0
BBX 8 15 0 -3
BITMAP
18
18
18
18
18
18
18
F8
FF
F8
00
00
00
00
00
ENDCHAR

STARTCHAR uni2536
ENCODING 9526
SWIDTH 548 0
DWIDTH 8 0
BBX 8 15 0 -3
BITMAP
18
18
18
18
18
18
18
1F
FF
1F
00
00
00
00
00
ENDCHAR

STARTCHAR uni2537
ENCODING 9527
SWIDTH 548 0
DWIDTH 8 0
BBX 8 15 0 -3
BITMAP
18
18
18
18
18
18
18
FF
FF
FF
00
00
00
00
00
ENDCHAR

STARTCHAR uni2538
ENCODING 9528
SWIDTH 548 0
DWIDTH 8 0
BBX 8 15 0 -3
BITMAP
3C
3C
3C
3C
3C
3C
3C
3C
FF
00
00
00
00
00
00
ENDCHAR

STARTCHAR uni2539
ENCODING 9529
SWIDTH 548 0
DWIDTH 8 0
BBX 8 15 0 -3
BITMAP
3C
3C
3C
3C
3C
3C
3C
FC
FF
FC
00
00
00
00
00
ENDCHAR

STARTCHAR uni253A
ENCODING 9530
SWIDTH 548 0
DWIDTH 8 0
BBX 8 15 0 -3
BITMAP
3C
3C
3C
3C
3C
3C
3C
3F
FF
3F
00
00
00
00
00
ENDCHAR

STARTCHAR uni253B
ENCODING 9531
SWIDTH 548 0
DWIDTH 8 0
BBX 8 15 0 -3
BITMAP
3C
3C
3C
3C
3C
3C
3C
FF
FF
FF
00
00
00
00
00
ENDCHAR

STARTCHAR SF050000
ENCODING 9532
SWIDTH 548 0
DWIDTH 8 0
BBX 8 15 0 -3
BITMAP
18
18
18
18
18
18
18
18
FF
18
18
18
18
18
18
ENDCHAR

STARTCHAR uni253D
ENCODING 9533
SWIDTH 548 0
DWIDTH 8 0
BBX 8 15 0 -3
BITMAP
18
18
18
18
18
18
18
F8
FF
F8
18
18
18
18
18
ENDCHAR

STARTCHAR uni253E
ENCODING 9534
SWIDTH 548 0
DWIDTH 8 0
BBX 8 15 0 -3
BITMAP
18
18
18
18
18
18
18
1F
FF
1F
18
18
18
18
18
ENDCHAR

STARTCHAR uni253F
ENCODING 9535
SWIDTH 548 0
DWIDTH 8 0
BBX 8 15 0 -3
BITMAP
18
18
18
18
18
18
18
FF
FF
FF
18
18
18
18
18
ENDCHAR

STARTCHAR uni2540
ENCODING 9536
SWIDTH 548 0
DWIDTH 8 0
BBX 8 15 0 -3
BITMAP
3C
3C
3C
3C
3C
3C
3C
3C
FF
18
18
18
18
18
18
ENDCHAR

STARTCHAR uni2541
ENCODING 9537
SWIDTH 548 0
DWIDTH 8 0
BBX 8 15 0 -3
BITMAP
18
18
18
18
18
18
18
18
FF
3C
3C
3C
3C
3C
3C
ENDCHAR

STARTCHAR uni2542
ENCODING 9538
SWIDTH 548 0
DWIDTH 8 0
BBX 8 15 0 -3
BITMAP
3C
3C
3C
3C
3C
3C
3C
3C
FF
3C
3C
3C
3C
3C
3C
ENDCHAR

STARTCHAR uni2543
ENCODING 9539
SWIDTH 548 0
DWIDTH 8 0
BBX 8 15 0 -3
BITMAP
3C
3C
3C
3C
3C
3C
3C
FC
FF
FC
18
18
18
18
18
ENDCHAR

STARTCHAR uni2544
ENCODING 9540
SWIDTH 548 0
DWIDTH 8 0
BBX 8 15 0 -3
BITMAP
3C
3C
3C
3C
3C
3C
3C
3F
FF
3F
18
18
18
18
18
ENDCHAR

STARTCHAR uni2545
ENCODING 9541
SWIDTH 548 0
DWIDTH 8 0
BBX 8 15 0 -3
BITMAP
18
18
18
18
18
18
18
FC
FF
FC
3C
3C
3C
3C
3C
ENDCHAR

STARTCHAR uni2546
ENCODING 9542
SWIDTH 548 0
DWIDTH 8 0
BBX 8 15 0 -3
BITMAP
18
18
18
18
18
18
18
3F
FF
3F
3C
3C
3C
3C
3C
ENDCHAR

STARTCHAR uni2547
ENCODING 9543
SWIDTH 548 0
DWIDTH 8 0
BBX 8 15 0 -3
BITMAP
3C
3C
3C
3C
3C
3C
3C
FF
FF
FF
18
18
18
18
18
ENDCHAR

STARTCHAR uni2548
ENCODING 9544
SWIDTH 548 0
DWIDTH 8 0
BBX 8 15 0 -3
BITMAP
18
18
18
18
18
18
18
FF
FF
FF
3C
3C
3C
3C
3C
ENDCHAR

STARTCHAR uni2549
ENCODING 9545
SWIDTH 548 0
DWIDTH 8 0
BBX 8 15 0 -3
BITMAP
3C
3C
3C
3C
3C
3C
3C
FC
FF
FC
3C
3C
3C
3C
3C
ENDCHAR

STARTCHAR uni254A
ENCODING 9546
SWIDTH 548 0
DWIDTH 8 0
BBX 8 15 0 -3
BITMAP
3C
3C
3C
3C
3C
3C
3C
3F
FF
3F
3C
3C
3C
3C
3C
ENDCHAR

STARTCHAR uni254B
ENCODING 9547
SWIDTH 548 0
DWIDTH 8 0
BBX 8 15 0 -3
BITMAP
3C
3C
3C
3C
3C
3C
3C
FF
FF
FF
3C
3C
3C
3C
3C
ENDCHAR

STARTCHAR uni254C
ENCODING 9548
SWIDTH 548 0
DWIDTH 8 0
BBX 8 15 0 -3
BITMAP
00
00
00
00
00
00
00
00
77
00
00
00
00
00
00
ENDCHAR

STARTCHAR uni254D
ENCODING 9549
SWIDTH 548 0
DWIDTH 8 0
BBX 8 15 0 -3
BITMAP
00
00
00
00
00
00
00
77
77
77
00
00
00
00
00
ENDCHAR

STARTCHAR uni254E
ENCODING 9550
SWIDTH 548 0
DWIDTH 8 0
BBX 8 15 0 -3
BITMAP
18
18
18
18
18
18
18
00
18
18
18
18
18
18
00
ENDCHAR

STARTCHAR uni254F
ENCODING 9551
SWIDTH 548 0
DWIDTH 8 0
BBX 8 15 0 -3
BITMAP
3C
3C
3C
3C
3C
3C
3C
00
3C
3C
3C
3C
3C
3C
00
ENDCHAR

STARTCHAR SF430000
ENCODING 9552
SWIDTH 548 0
DWIDTH 8 0
BBX 8 15 0 -3
BITMAP
00
00
00
00
00
00
00
FF
00
FF
00
00
00
00
00
ENDCHAR

STARTCHAR SF240000
ENCODING 9553
SWIDTH 548 0
DWIDTH 8 0
BBX 8 15 0 -3
BITMAP
6C
6C
6C
6C
6C
6C
6C
6C
6C
6C
6C
6C
6C
6C
6C
ENDCHAR

STARTCHAR SF510000
ENCODING 9554
SWIDTH 548 0
DWIDTH 8 0
BBX 8 15 0 -3
BITMAP
00
00
00
00
00
00
00
1F
18
1F
18
18
18
18
18
ENDCHAR

STARTCHAR SF520000
ENCODING 9555
SWIDTH 548 0
DWIDTH 8 0
BBX 8 15 0 -3
BITMAP
00
00
00
00
00
00
00
00
7F
6C
6C
6C
6C
6C
6C
ENDCHAR

STARTCHAR SF390000
ENCODING 9556
SWIDTH 548 0
DWIDTH 8 0
BBX 8 15 0 -3
BITMAP
00
00
00
00
00
00
00
7F
60
6F
6C
6C
6C
6C
6C
ENDCHAR

STARTCHAR SF220000
ENCODING 9557
SWIDTH 548 0
DWIDTH 8 0
BBX 8 15 0 -3
BITMAP
00
00
00
00
00
00
00
F8
08
F8
18
18
18
18
18
ENDCHAR

STARTCHAR SF210000
ENCODING 9558
SWIDTH 548 0
DWIDTH 8 0
BBX 8 15 0 -3
BITMAP
00
00
00
00
00
00
00
00
FC
6C
6C
6C
6C
6C
6C
ENDCHAR

STARTCHAR SF250000
ENCODING 9559
SWIDTH 548 0
DWIDTH 8 0
BBX 8 15 0 -3
BITMAP
00
00
00
00
00
00
00
FC
0C
EC
6C
6C
6C
6C
6C
ENDCHAR

STARTCHAR SF500000
ENCODING 9560
SWIDTH 548 0
DWIDTH 8 0
BBX 8 15 0 -3
BITMAP
18
18
18
18
18
18
18
1F
18
1F
00
00
00
00
00
ENDCHAR

STARTCHAR SF490000
ENCODING 9561
SWIDTH 548 0
DWIDTH 8 0
BBX 8 15 0 -3
BITMAP
6C
6C
6C
6C
6C
6C
6C
6C
7F
00
00
00
00
00
00
ENDCHAR

STARTCHAR SF380000
ENCODING 9562
SWIDTH 548 0
DWIDTH 8 0
BBX 8 15 0 -3
BITMAP
6C
6C
6C
6C
6C
6C
6C
6F
60
7F
00
00
00
00
00
ENDCHAR

STARTCHAR SF280000
ENCODING 9563
SWIDTH 548 0
DWIDTH 8 0
BBX 8 15 0 -3
BITMAP
18
18
18
18
18
18
18
F8
18
F8
00
00
00
00
00
ENDCHAR

STARTCHAR SF270000
ENCODING 9564
SWIDTH 548 0
DWIDTH 8 0
BBX 8 15 0 -3
BITMAP
6C
6C
6C
6C
6C
6C
6C
6C
FC
00
00
00
00
00
00
ENDCHAR

STARTCHAR SF260000
ENCODING 9565
SWIDTH 548 0
DWIDTH 8 0
BBX 8 15 0 -3
BITMAP
6C
6C
6C
6C
6C
6C
6C
EC
0C
FC
00
00
00
00
00
ENDCHAR

STARTCHAR SF360000
ENCODING 9566
SWIDTH 548 0
DWIDTH 8 0
BBX 8 15 0 -3
BITMAP
18
18
18
18
18
18
18
1F
18
1F
18
18
18
18
18
ENDCHAR

STARTCHAR SF370000
ENCODING 9567
SWIDTH 548 0
DWIDTH 8 0
BBX 8 15 0 -3
BITMAP
6C
6C
6C
6C
6C
6C
6C
6C
6F
6C
6C
6C
6C
6C
6C
ENDCHAR

STARTCHAR SF420000
ENCODING 9568
SWIDTH 548 0
DWIDTH 8 0
BBX 8 15 0 -3
BITMAP
6C
6C
6C
6C
6C
6C
6C
6F
60
6F
6C
6C
6C
6C
6C
ENDCHAR

STARTCHAR SF190000
ENCODING 9569
SWIDTH 548 0
DWIDTH 8 0
BBX 8 15 0 -3
BITMAP
18
18
18
18
18
18
18
F8
18
F8
18
18
18
18
18
ENDCHAR

STARTCHAR SF200000
ENCODING 9570
SWIDTH 548 0
DWIDTH 8 0
BBX 8 15 0 -3
BITMAP
6C
6C
6C
6C
6C
6C
6C
6C
EC
6C
6C
6C
6C
6C
6C
ENDCHAR

STARTCHAR SF230000
ENCODING 9571
SWIDTH 548 0
DWIDTH 8 0
BBX 8 15 0 -3
BITMAP
6C
6C
6C
6C
6C
6C
6C
EC
0C
EC
6C
6C
6C
6C
6C
ENDCHAR

STARTCHAR SF470000
ENCODING 9572
SWIDTH 548 0
DWIDTH 8 0
BBX 8 15 0 -3
BITMAP
00
00
00
00
00
00
00
FF
00
FF
18
18
18
18
18
ENDCHAR

STARTCHAR SF480000
ENCODING 9573
SWIDTH 548 0
DWIDTH 8 0
BBX 8 15 0 -3
BITMAP
00
00
00
00
00
00
00
00
FF
6C
6C
6C
6C
6C
6C
ENDCHAR

STARTCHAR SF410000
ENCODING 9574
SWIDTH 548 0
DWIDTH 8 0
BBX 8 15 0 -3
BITMAP
00
00
00
00
00
00
00
FF
00
EF
6C
6C
6C
6C
6C
ENDCHAR

STARTCHAR SF450000
ENCODING 9575
SWIDTH 548 0
DWIDTH 8 0
BBX 8 15 0 -3
BITMAP
18
18
18
18
18
18
18
FF
00
FF
00
00
00
00
00
ENDCHAR

STARTCHAR SF460000
ENCODING 9576
SWIDTH 548 0
DWIDTH 8 0
BBX 8 15 0 -3
BITMAP
6C
6C
6C
6C
6C
6C
6C
6C
FF
00
00
00
00
00
00
ENDCHAR

STARTCHAR SF400000
ENCODING 9577
SWIDTH 548 0
DWIDTH 8 0
BBX 8 15 0 -3
BITMAP
6C
6C
6C
6C
6C
6C
6C
EF
00
FF
00
00
00
00
00
ENDCHAR

STARTCHAR SF540000
ENCODING 9578
SWIDTH 548 0
DWIDTH 8 0
BBX 8 15 0 -3
BITMAP
18
18
18
18
18
18
18
FF
18
FF
18
18
18
18
18
ENDCHAR

STARTCHAR SF530000
ENCODING 9579
SWIDTH 548 0
DWIDTH 8 0
BBX 8 15 0 -3
BITMAP
6C
6C
6C
6C
6C
6C
6C
6C
FF
6C
6C
6C
6C
6C
6C
ENDCHAR

STARTCHAR SF440000
ENCODING 9580
SWIDTH 548 0
DWIDTH 8 0
BBX 8 15 0 -3
BITMAP
6C
6C
6C
6C
6C
6C
6C
EF
00
EF
6C
6C
6C
6C
6C
ENDCHAR

STARTCHAR uni256D
ENCODING 9581
SWIDTH 548 0
DWIDTH 8 0
BBX 8 15 0 -3
BITMAP
00
00
00
00
00
00
00
00
07
0C
18
18
18
18
18
ENDCHAR

STARTCHAR uni256E
ENCODING 9582
SWIDTH 548 0
DWIDTH 8 0
BBX 8 15 0 -3
BITMAP
00
00
00
00
00
00
00
00
E0
30
18
18
18
18
18
ENDCHAR

STARTCHAR uni256F
ENCODING 9583
SWIDTH 548 0
DWIDTH 8 0
BBX 8 15 0 -3
BITMAP
18
18
18
18
18
18
18
30
E0
00
00
00
00
00
00
ENDCHAR

STARTCHAR uni2570
ENCODING 9584
SWIDTH 548 0
DWIDTH 8 0
BBX 8 15 0 -3
BITMAP
18
18
18
18
18
18
18
0C
07
00
00
00
00
00
00
ENDCHAR

STARTCHAR uni2571
ENCODING 9585
SWIDTH 548 0
DWIDTH 8 0
BBX 8 15 0 -3
BITMAP
01
01
02
02
04
04
08
10
10
20
20
40
40
80
80
ENDCHAR

STARTCHAR uni2572
ENCODING 9586
SWIDTH 548 0
DWIDTH 8 0
BBX 8 15 0 -3
BITMAP
80
80
40
40
20
20
10
08
08
04
04
02
02
01
01
ENDCHAR

STARTCHAR uni2573
ENCODING 9587
SWIDTH 548 0
DWIDTH 8 0
BBX 8 15 0 -3
BITMAP
81
81
42
42
24
24
18
18
18
24
24
42
42
81
81
ENDCHAR

STARTCHAR uni2574
ENCODING 9588
SWIDTH 548 0
DWIDTH 8 0
BBX 8 15 0 -3
BITMAP
00
00
00
00
00
00
00
00
F8
00
00
00
00
00
00
ENDCHAR

STARTCHAR uni2575
ENCODING 9589
SWIDTH 548 0
DWIDTH 8 0
BBX 8 15 0 -3
BITMAP
18
18
18
18
18
18
18
18
18
00
00
00
00
00
00
ENDCHAR

STARTCHAR uni2576
ENCODING 9590
SWIDTH 548 0
DWIDTH 8 0
BBX 8 15 0 -3
BITMAP
00
00
00
00
00
00
00
00
1F
00
00
00
00
00
00
ENDCHAR

STARTCHAR uni2577
ENCODING 9591
SWIDTH 548 0
DWIDTH 8 0
BBX 8 15 0 -3
BITMAP
00
00
00
00
00
00
00
00
18
18
18
18
18
18
18
ENDCHAR

STARTCHAR uni2578
ENCODING 9592
SWIDTH 548 0
DWIDTH 8 0
BBX 8 15 0 -3
BITMAP
00
00
00
00
00
00
00
FC
FC
FC
00
00
00
00
00
ENDCHAR

STARTCHAR uni2579
ENCODING 9593
SWIDTH 548 0
DWIDTH 8 0
BBX 8 15 0 -3
BITMAP
3C
3C
3C
3C
3C
3C
3C
3C
3C
3C
00
00
00
00
00
ENDCHAR

STARTCHAR uni257A
ENCODING 9594
SWIDTH 548 0
DWIDTH 8 0
BBX 8 15 0 -3
BITMAP
00
00
00
00
00
00
00
3F
3F
3F
00
00
00
00
00
ENDCHAR

STARTCHAR uni257B
ENCODING 9595
SWIDTH 548 0
DWIDTH 8 0
BBX 8 15 0 -3
BITMAP
00
00
00
00
00
00
00
3C
3C
3C
3C
3C
3C
3C
3C
ENDCHAR

STARTCHAR uni257C
ENCODING 9596
SWIDTH 548 0
DWIDTH 8 0
BBX 8 15 0 -3
BITMAP
00
00
00
00
00
00
00
3F
FF
3F
00
00
00
00
00
ENDCHAR

STARTCHAR uni257D
ENCODING 9597
SWIDTH 548 0
DWIDTH 8 0
BBX 8 15 0 -3
BITMAP
18
18
18
18
18
18
18
3C
3C
3C
3C
3C
3C
3C
3C
ENDCHAR

STARTCHAR uni257E
ENCODING 9598
SWIDTH 548 0
DWIDTH 8 0
BBX 8 15 0 -3
BITMAP
00
00
00
00
00
00
00
FC
FF
FC
00
00
00
00
00
ENDCHAR

STARTCHAR uni257F
ENCODING 9599
SWIDTH 548 0
DWIDTH 8 0
BBX 8 15 0 -3
BITMAP
3C
3C
3C
3C
3C
3C
3C
3C
3C
3C
18
18
18
18
18
ENDCHAR

STARTCHAR upblock
ENCODING 9600
SWIDTH 548 0
DWIDTH 8 0
BBX 8 15 0 -3
BITMAP
FF
FF
FF
FF
FF
FF
FF
FF
00
00
00
00
00
00
00
ENDCHAR

STARTCHAR uni2581
ENCODING 9601
SWIDTH 548 0
DWIDTH 8 0
BBX 8 15 0 -3
BITMAP
00
00
00
00
00
00
00
00
00
00
00
00
00
FF
FF
ENDCHAR

STARTCHAR uni2582
ENCODING 9602
SWIDTH 548 0
DWIDTH 8 0
BBX 8 15 0 -3
BITMAP
00
00
00
00
00
00
00
00
00
00
00
FF
FF
FF
FF
ENDCHAR

STARTCHAR uni2583
ENCODING 9603
SWIDTH 548 0
DWIDTH 8 0
BBX 8 15 0 -3
BITMAP
00
00
00
00
00
00
00
00
00
FF
FF
FF
FF
FF
FF
ENDCHAR

STARTCHAR dnblock
ENCODING 9604
SWIDTH 548 0
DWIDTH 8 0
BBX 8 15 0 -3
BITMAP
00
00
00
00
00
00
00
00
FF
FF
FF
FF
FF
FF
FF
ENDCHAR

STARTCHAR uni2585
ENCODING 9605
SWIDTH 548 0
DWIDTH 8 0
BBX 8 15 0 -3
BITMAP
00
00
00
00
00
00
FF
FF
FF
FF
FF
FF
FF
FF
FF
ENDCHAR

STARTCHAR uni2586
ENCODING 9606
SWIDTH 548 0
DWIDTH 8 0
BBX 8 15 0 -3
BITMAP
00
00
00
00
FF
FF
FF
FF
FF
FF
FF
FF
FF
FF
FF
ENDCHAR

STARTCHAR uni2587
ENCODING 9607
SWIDTH 548 0
DWIDTH 8 0
BBX 8 15 0 -3
BITMAP
00
00
FF
FF
FF
FF
FF
FF
FF
FF
FF
FF
FF
FF
FF
ENDCHAR

STARTCHAR block
ENCODING 9608
SWIDTH 548 0
DWIDTH 8 0
BBX 8 15 0 -3
BITMAP
FF
FF
FF
FF
FF
FF
FF
FF
FF
FF
FF
FF
FF
FF
FF
ENDCHAR

STARTCHAR uni2589
ENCODING 9609
SWIDTH 548 0
DWIDTH 8 0
BBX 8 15 0 -3
BITMAP
FE
FE
FE
FE
FE
FE
FE
FE
FE
FE
FE
FE
FE
FE
FE
ENDCHAR

STARTCHAR uni258A
ENCODING 9610
SWIDTH 548 0
DWIDTH 8 0
BBX 8 15 0 -3
BITMAP
FC
FC
FC
FC
FC
FC
FC
FC
FC
FC
FC
FC
FC
FC
FC
ENDCHAR

STARTCHAR uni258B
ENCODING 9611
SWIDTH 548 0
DWIDTH 8 0
BBX 8 15 0 -3
BITMAP
F8
F8
F8
F8
F8
F8
F8
F8
F8
F8
F8
F8
F8
F8
F8
ENDCHAR

STARTCHAR lfblock
ENCODING 9612
SWIDTH 548 0
DWIDTH 8 0
BBX 8 15 0 -3
BITMAP
F0
F0
F0
F0
F0
F0
F0
F0
F0
F0
F0
F0
F0
F0
F0
ENDCHAR

STARTCHAR uni258D
ENCODING 9613
SWIDTH 548 0
DWIDTH 8 0
BBX 8 15 0 -3
BITMAP
E0
E0
E0
E0
E0
E0
E0
E0
E0
E0
E0
E0
E0
E0
E0
ENDCHAR

STARTCHAR uni258E
ENCODING 9614
SWIDTH 548 0
DWIDTH 8 0
BBX 8 15 0 -3
BITMAP
C0
C0
C0
C0
C0
C0
C0
C0
C0
C0
C0
C0
C0
C0
C0
ENDCHAR

STARTCHAR uni258F
ENCODING 9615
SWIDTH 548 0
DWIDTH 8 0
BBX 8 15 0 -3
BITMAP
80
80
80
80
80
80
80
80
80
80
80
80
80
80
80
ENDCHAR

STARTCHAR rtblock
ENCODING 9616
SWIDTH 548 0
DWIDTH 8 0
BBX 8 15 0 -3
BITMAP
0F
0F
0F
0F
0F
0F
0F
0F
0F
0F
0F
0F
0F
0F
0F
ENDCHAR

STARTCHAR shadelight
ENCODING 9617
SWIDTH 548 0
DWIDTH 8 0
BBX 8 15 0 -3
BITMAP
55
AA
00
55
AA
00
55
AA
00
55
AA
00
55
AA
00
ENDCHAR

STARTCHAR shademedium
ENCODING 9618
SWIDTH 548 0
DWIDTH 8 0
BBX 8 15 0 -3
BITMAP
55
AA
55
55
AA
55
55
AA
55
55
AA
55
55
AA
55
ENDCHAR

STARTCHAR shadedark
ENCODING 9619
SWIDTH 548 0
DWIDTH 8 0
BBX 8 15 0 -3
BITMAP
55
FF
AA
55
FF
AA
55
FF
AA
55
FF
AA
55
FF
AA
ENDCHAR

STARTCHAR uni2594
ENCODING 9620
SWIDTH 548 0
DWIDTH 8 0
BBX 8 15 0 -3
BITMAP
FF
FF
00
00
00
00
00
00
00
00
00
00
00
00
00
ENDCHAR

STARTCHAR uni2595
ENCODING 9621
SWIDTH 548 0
DWIDTH 8 0
BBX 8 15 0 -3
BITMAP
01
01
01
01
01
01
01
01
01
01
01
01
01
01
01
ENDCHAR

STARTCHAR uni2596
ENCODING 9622
SWIDTH 548 0
DWIDTH 8 0
BBX 8 15 0 -3
BITMAP
00
00
00
00
00
00
00
00
F0
F0
F0
F0
F0
F0
F0
ENDCHAR

STARTCHAR uni2597
ENCODING 9623
SWIDTH 548 0
DWIDTH 8 0
BBX 8 15 0 -3
BITMAP
00
00
00
00
00
00
00
00
0F
0F
0F
0F
0F
0F
0F
ENDCHAR

STARTCHAR uni2598
ENCODING 9624
SWIDTH 548 0
DWIDTH 8 0
BBX 8 15 0 -3
BITMAP
F0
F0
F0
F0
F0
F0
F0
F0
00
00
00
00
00
00
00
ENDCHAR

STARTCHAR uni2599
ENCODING 9625
SWIDTH 548 0
DWIDTH 8 0
BBX 8 15 0 -3
BITMAP
F0
F0
F0
F0
F0
F0
F0
F0
FF
FF
FF
FF
FF
FF
FF
ENDCHAR

STARTCHAR uni259A
ENCODING 9626
SWIDTH 548 0
DWIDTH 8 0
BBX 8 15 0 -3
BITMAP
F0
F0
F0
F0
F0
F0
F0
F0
0F
0F
0F
0F
0F
0F
0F
ENDCHAR

STARTCHAR uni259B
ENCODING 9627
SWIDTH 548 0
DWIDTH 8 0
BBX 8 15 0 -3
BITMAP
FF
FF
FF
FF
FF
FF
FF
FF
F0
F0
F0
F0
F0
F0
F0
ENDCHAR

STARTCHAR uni259C
ENCODING 9628
SWIDTH 548 0
DWIDTH 8 0
BBX 8 15 0 -3
BITMAP
FF
FF
FF
FF
FF
FF
FF
FF
0F
0F
0F
0F
0F
0F
0F
ENDCHAR

STARTCHAR uni259D
ENCODING 9629
SWIDTH 548 0
DWIDTH 8 0
BBX 8 15 0 -3
BITMAP
0F
0F
0F
0F
0F
0F
0F
0F
00
00
00
00
00
00
00
ENDCHAR

STARTCHAR uni259E
ENCODING 9630
SWIDTH 548 0
DWIDTH 8 0
BBX 8 15 0 -3
BITMAP
0F
0F
0F
0F
0F
0F
0F
0F
F0
F0
F0
F0
F0
F0
F0
ENDCHAR

STARTCHAR uni259F
ENCODING 9631
SWIDTH 548 0
DWIDTH 8 0
BBX 8 15 0 -3
BITMAP
0F
0F
0F
0F
0F
0F
0F
0F
FF
FF
FF
FF
FF
FF
FF
ENDCHAR

STARTCHAR blacksquare
ENCODING 9632
SWIDTH 548 0
DWIDTH 8 0
BBX 8 15 0 -3
BITMAP
00
00
00
00
3E
3E
3E
3E
3E
3E
3E
00
00
00
00
ENDCHAR

STARTCHAR diamond
ENCODING 9830
SWIDTH 548 0
DWIDTH 8 0
BBX 8 15 0 -3
BITMAP
00
00
00
00
08
1C
3E
7F
3E
1C
08
00
00
00
00
ENDCHAR

STARTCHAR uniFFFD
ENCODING 65533
SWIDTH 548 0
DWIDTH 8 0
BBX 8 15 0 -3
BITMAP
00
00
3E
63
49
79
73
73
73
7F
73
3E
00
00
00
ENDCHAR
ENDFONT
